<?xml version="1.0" encoding="UTF-8"?>
<svg xmlns="http://www.w3.org/2000/svg" version="1.1" xmlns:xlink="http://www.w3.org/1999/xlink" viewBox="0 0 256 256">
  <!-- Generator: Adobe Illustrator 29.5.1, SVG Export Plug-In . SVG Version: 2.1.0 Build 141)  -->
  <defs>
    <linearGradient id="linear-gradient" x1="40" y1="142" x2="215" y2="142" gradientUnits="userSpaceOnUse">
      <stop offset=".056" stop-color="#2ab4ff"/>
      <stop offset=".161" stop-color="#2089c3"/>
      <stop offset=".257" stop-color="#186792"/>
      <stop offset=".304" stop-color="#155a80"/>
      <stop offset=".327" stop-color="#135579"/>
      <stop offset=".535" stop-color="#0b3145"/>
      <stop offset=".715" stop-color="#05161f"/>
      <stop offset=".859" stop-color="#010508"/>
      <stop offset=".95" stop-color="#000"/>
    </linearGradient>
    <linearGradient id="Sky" x1="21.407" y1="142.422" x2="232.679" y2="142.422" gradientUnits="userSpaceOnUse">
      <stop offset="0" stop-color="#cce0f4"/>
      <stop offset=".064" stop-color="#c2dcf2"/>
      <stop offset=".171" stop-color="#a9d2ee"/>
      <stop offset=".307" stop-color="#7fc2e7"/>
      <stop offset=".465" stop-color="#46abdd"/>
      <stop offset=".567" stop-color="#1e9cd7"/>
      <stop offset=".865" stop-color="#0075be"/>
      <stop offset=".994" stop-color="#005b97"/>
    </linearGradient>
  </defs>
  <g id="Layer_2" display="none">
    <rect y="0" width="256" height="256"/>
  </g>
  <g id="Layer_4">
    <ellipse cx="127.5" cy="142" rx="87.5" ry="84" fill="url(#linear-gradient)" stroke="#fff" stroke-miterlimit="10" stroke-width="6"/>
    <g>
      <path d="M156.167,159.507l9.556-9.458-12.969,3.547s1.901,0,3.098,1.621l-6.475,3.738-3.562.887-2.549,2.642-9.537,5.506-.989-.265-.238.888-4.667,1.61-14.255,9.4-8.677,5.01-1.35-.362-.362,1.35-.501.289c-1.219.147-3.101.278-4.72.042-1.525.688-5.288,2.648-7.605,3.946,1.728-.106,4.586.053,5.56.448-.144,1.041-1.435,3.595-2.392,5.039,2.282-1.358,5.861-3.637,7.22-4.614.606-1.52,1.66-3.084,2.396-4.066l.501-.289,1.35.362.362-1.35,8.677-5.01,15.268-7.645,3.728-3.237.888.238.265-.989,9.537-5.506,3.562-.887,2.549-2.642,6.475-3.738c.805,1.847-.145,3.494-.145,3.494Z" stroke="#fff" stroke-miterlimit="10"/>
      <path d="M99.92,159.507l-9.556-9.458,12.969,3.547s-1.901,0-3.098,1.621l6.475,3.738,3.562.887,2.549,2.642,9.537,5.506.989-.265.238.888,4.667,1.61,14.255,9.4,8.677,5.01,1.35-.362.362,1.35.501.289c1.218.147,3.101.278,4.72.042,1.525.688,5.288,2.648,7.605,3.946-1.728-.106-4.586.053-5.56.448.144,1.041,1.435,3.595,2.392,5.039-2.282-1.358-5.861-3.637-7.22-4.614-.606-1.52-1.66-3.084-2.396-4.066l-.501-.289-1.35.362-.362-1.35-8.677-5.01-15.268-7.645-3.728-3.237-.888.238-.265-.989-9.537-5.506-3.562-.887-2.549-2.642-6.475-3.738c-.805,1.847.145,3.494.145,3.494Z" stroke="#fff" stroke-miterlimit="10"/>
    </g>
  </g>
  <g id="Layer_3">
    <line x1="100.783" y1="30.641" x2="102.935" y2="41.255" fill="#090045" opacity=".01" stroke="#231f20" stroke-linecap="round" stroke-miterlimit="10" stroke-width=".25"/>
    <line x1="155.435" y1="30.609" x2="153.217" y2="40.913" fill="#090045" opacity=".04" stroke="#231f20" stroke-linecap="round" stroke-miterlimit="10" stroke-width=".25"/>
    <line x1="112.522" y1="229.815" x2="113.207" y2="227.712" fill="#090045" opacity="0" stroke="#231f20" stroke-linecap="round" stroke-miterlimit="10" stroke-width=".25"/>
    <line x1="142.799" y1="227.663" x2="143.63" y2="229.766" fill="#090045" opacity="0" stroke="#231f20" stroke-linecap="round" stroke-miterlimit="10" stroke-width=".25"/>
    <path d="M118.74,234.329c-.881,2.875-3.135,5.922-6.98,5.619,2.597-1.157,5.08-3.737,6.749-5.914-4.622-1.833-7.796,1.255-12.47,6.435,3.992,1.207,11.086,1.236,12.561-4.581.191-.834.14-1.362.14-1.559h0ZM127.043,231.536h0c1.513,0,2.74,1.166,2.74,2.604s-1.227,2.604-2.74,2.604-2.738-1.166-2.738-2.604,1.226-2.604,2.738-2.604h0ZM157.933,54.171h0c.396-2.972-.394-6.618-4.047-7.797,1.897,2.044,3.094,5.351,3.712,7.98-5.009-.068-6.626-4.103-8.741-10.623,4.167.402,10.685,3.065,9.601,8.958-.174.836-.442,1.301-.525,1.482h0ZM157.64,55.154h0c-1.301,2.727-3.987,5.439-7.747,4.621,2.743-.794,5.586-3.013,7.563-4.944-4.303-2.438-7.905.19-13.303,4.688,3.77,1.734,10.788,2.718,13.117-2.84.313-.8.341-1.331.37-1.525h0ZM167.827,57.907h0c.735-2.912.368-6.62-3.129-8.17,1.652,2.229,2.461,5.64,2.775,8.318-4.971-.588-6.115-4.766-7.47-11.466,4.096.833,10.269,4.153,8.516,9.899-.27.814-.589,1.249-.692,1.419h0ZM167.423,58.854h0c-.052.19-.14.716-.544,1.478-2.952,5.282-9.815,3.578-13.365,1.463,5.883-3.911,9.765-6.151,13.762-3.281-2.186,1.715-5.267,3.626-8.085,4.131,3.644,1.203,6.625-1.214,8.232-3.791h0ZM177.233,62.646h0c1.064-2.818,1.124-6.542-2.173-8.446,1.387,2.386,1.8,5.861,1.804,8.556-4.873-1.1-5.531-5.371-6.11-12.173,3.977,1.252,9.733,5.194,7.331,10.723-.36.782-.729,1.181-.851,1.339h0ZM176.722,63.546h0c-1.892,2.393-5.132,4.488-8.617,2.914,2.86-.211,6.141-1.791,8.512-3.268-3.645-3.266-7.761-1.443-14.057,1.834,3.286,2.472,9.912,4.877,13.454-.069.487-.716.636-1.229.708-1.411h0ZM186.039,68.332h0c1.381-2.691,1.868-6.386-1.191-8.62,1.104,2.516,1.117,6.013.812,8.692-4.718-1.598-4.883-5.913-4.677-12.734,3.809,1.657,9.078,6.172,6.056,11.42-.448.74-.86,1.098-.999,1.243h0ZM185.429,69.173h0c-.093.175-.3.669-.868,1.331-4.086,4.549-10.398,1.471-13.38-1.325,6.635-2.605,10.935-3.993,14.183-.367-2.526,1.221-5.969,2.453-8.835,2.366,3.284,1.926,6.745.18,8.901-2.004h0ZM194.141,74.897h0c.154-.13.605-.443,1.136-1.132,3.605-4.903-1.114-9.937-4.711-11.979-.986,6.758-1.318,11.063,3.189,13.142.611-2.632,1-6.109.19-8.724,2.786,2.538,1.878,6.161.196,8.692h0ZM193.437,75.671h0c-2.394,1.947-6.034,3.322-9.076,1.069,2.838.384,6.402-.483,9.053-1.436-2.812-3.941-7.245-3.008-14.139-1.107,2.643,3.089,8.563,6.803,13.149,2.705.64-.598.9-1.067,1.014-1.231h0ZM201.439,82.263h0c1.963-2.342,3.282-5.85.804-8.661.504,2.683-.282,6.101-1.19,8.652-4.242-2.533-3.418-6.778-1.662-13.396,3.341,2.404,7.455,7.897,3.309,12.397-.606.628-1.091.894-1.26,1.007h0ZM200.652,82.96h0c-.131.151-.445.59-1.15,1.119-5.028,3.599-10.487-.707-12.76-4.052,7.071-1.175,11.586-1.644,13.929,2.565-2.744.673-6.387,1.166-9.164.489,2.766,2.556,6.542,1.566,9.145-.12h0ZM207.851,90.342h0c.181-.095.692-.308,1.367-.87,4.639-4.044,1.18-9.931-1.866-12.666-2.505,6.395-3.81,10.529.116,13.486,1.196-2.441,2.369-5.756,2.175-8.476,2.141,3.051.428,6.401-1.792,8.526h0ZM206.988,90.951h0c-2.781,1.408-6.648,2.001-9.105-.827,2.684.959,6.361.847,9.167.463-1.847-4.426-6.388-4.429-13.552-3.993,1.876,3.56,6.809,8.406,12.22,5.35.761-.453,1.123-.856,1.271-.994h0ZM213.297,99.037h0c2.45-1.883,4.538-5.035,2.76-8.29-.12,2.725-1.666,5.898-3.135,8.201-3.564-3.347-1.791-7.321,1.432-13.418,2.713,3.034,5.476,9.245.401,12.782-.736.49-1.268.648-1.459.724h0ZM212.37,99.554h0c-.163.121-.57.484-1.379.855-5.729,2.477-10.076-2.852-11.532-6.586,7.171.31,11.685.785,13.012,5.375-2.832.091-6.5-.178-9.057-1.411,2.117,3.066,6.029,2.877,8.956,1.767h0ZM217.714,108.244h0c.198-.055.746-.157,1.533-.568,5.451-2.991,3.416-9.451,1.067-12.749-3.904,5.727-6.121,9.493-2.963,13.19,1.725-2.137,3.625-5.132,4.057-7.827,1.394,3.421-1.043,6.337-3.693,7.954h0ZM216.732,108.662h0c-3.036.802-6.947.584-8.699-2.684,2.401,1.492,6.016,2.14,8.842,2.343-.794-4.702-5.226-5.641-12.319-6.693,1.019,3.862,4.73,9.61,10.709,7.742.846-.285,1.292-.605,1.468-.708h0ZM221.048,117.856h0c2.82-1.333,5.577-3.979,4.584-7.523-.738,2.634-2.971,5.413-4.931,7.359-2.715-4.002-.078-7.516,4.459-12.804,1.956,3.52,3.238,10.153-2.524,12.562-.829.326-1.385.37-1.588.406h0ZM220.023,118.169h0c-.187.084-.666.356-1.539.551-6.158,1.238-9.187-4.861-9.758-8.806,6.93,1.781,11.229,3.174,11.478,7.931-2.786-.496-6.305-1.515-8.521-3.246,1.368,3.428,5.231,4.051,8.34,3.57h0ZM223.258,127.755h0c.206-.014.765,0,1.626-.24,6.002-1.796,5.49-8.522,3.95-12.225-5.117,4.786-8.141,8.007-5.901,12.266,2.171-1.731,4.71-4.262,5.745-6.804.581,3.626-2.463,5.97-5.42,7.003h0ZM222.204,127.96h0c-3.146.155-6.915-.863-7.88-4.413,2.004,1.95,5.385,3.328,8.097,4.109.298-4.754-3.815-6.584-10.499-9.072.114,3.98,2.425,10.356,8.688,9.765.891-.103,1.399-.324,1.594-.388h0ZM224.32,137.824h0c3.058-.72,6.353-2.735,6.192-6.4-1.322,2.421-4.135,4.674-6.492,6.169-1.739-4.466,1.637-7.354,7.273-11.58,1.107,3.84.845,10.578-5.329,11.742-.884.147-1.438.078-1.644.069h0ZM223.249,137.919h0c-.201.043-.732.209-1.63.22-6.292-.062-7.858-6.639-7.515-10.608,6.36,3.166,10.238,5.413,9.396,10.107-2.606-1.057-5.81-2.778-7.578-4.925.553,3.631,4.182,5.034,7.327,5.206h0ZM224.22,147.943h0c.205.031.746.157,1.642.102,6.27-.516,7.304-7.189,6.644-11.119-6.087,3.616-9.774,6.138-8.558,10.756,2.514-1.242,5.569-3.19,7.161-5.458-.261,3.659-3.767,5.32-6.889,5.719h0ZM223.145,147.926h0c-3.106-.496-6.553-2.267-6.686-5.934,1.512,2.317,4.498,4.36,6.968,5.681,1.374-4.579-2.222-7.214-8.18-11.02-.795,3.909.006,10.61,6.254,11.323.894.083,1.44-.028,1.645-.051h0ZM222.961,157.992h0c3.15-.072,6.825-1.361,7.504-4.971-1.842,2.09-5.103,3.708-7.745,4.683-.678-4.717,3.276-6.84,9.742-9.805.204,3.977-1.589,10.501-7.88,10.366-.897-.039-1.421-.221-1.621-.272h0ZM221.894,157.864h0c-.207.002-.762.054-1.642-.121-6.129-1.357-6.157-8.1-4.917-11.903,5.486,4.4,8.759,7.393,6.867,11.801-2.304-1.569-5.037-3.91-6.274-6.368-.287,3.656,2.934,5.775,5.966,6.59h0ZM220.556,167.85h0c3.139.255,6.94-.645,8.029-4.165-2.07,1.887-5.497,3.159-8.236,3.854-.133-4.76,4.041-6.461,10.808-8.737-.253,3.975-2.784,10.275-9.022,9.486-.888-.131-1.388-.366-1.58-.437h0ZM219.509,167.611h0c-2.92-1.125-5.879-3.563-5.174-7.17.947,2.573,3.396,5.183,5.506,6.981,2.387-4.187-.524-7.5-5.472-12.443-1.669,3.652-2.415,10.358,3.522,12.342.853.265,1.412.27,1.617.289h0ZM217.034,177.4h0c3.091.579,6.974.078,8.459-3.307-2.275,1.661-5.827,2.569-8.628,2.976.413-4.746,4.758-6.003,11.746-7.565-.708,3.924-3.946,9.924-10.057,8.495-.866-.222-1.336-.508-1.52-.599h0ZM216.022,177.055h0c-.202-.04-.756-.104-1.574-.456-5.674-2.589-4.164-9.177-2.086-12.635,4.352,5.428,6.865,9.023,4.012,12.936-1.892-2.006-4.027-4.853-4.673-7.51-1.115,3.512,1.547,6.244,4.321,7.664h0ZM212.438,186.528h0c3.006.896,6.922.801,8.788-2.41-2.451,1.415-6.088,1.95-8.919,2.064.956-4.674,5.418-5.475,12.544-6.302-1.153,3.828-5.061,9.456-10.971,7.4-.836-.31-1.271-.643-1.442-.753h0ZM211.47,186.08h0c-2.593-1.7-4.926-4.692-3.416-8.066.338,2.707,2.134,5.759,3.783,7.95,3.286-3.595,1.199-7.429-2.502-13.275-2.463,3.221-4.721,9.614.622,12.775.773.435,1.317.555,1.513.617h0ZM206.821,195.125h0c2.885,1.202,6.79,1.513,9.012-1.485-2.599,1.152-6.274,1.308-9.102,1.126,1.487-4.547,6.014-4.878,13.193-4.963-1.586,3.686-6.116,8.875-11.755,6.219-.796-.396-1.189-.772-1.348-.898h0ZM205.912,194.58h0c-.188-.083-.715-.257-1.433-.77-4.949-3.696-1.971-9.816.846-12.763,3.009,6.194,4.643,10.223.965,13.457-1.388-2.349-2.823-5.57-2.847-8.296-1.891,3.198.086,6.412,2.47,8.372h0ZM200.253,203.088h0c.143.142.491.556,1.236,1.033,5.301,3.224,10.4-1.466,12.399-4.965-7.145-.661-11.684-.799-13.684,3.567,2.791.472,6.462.699,9.178-.177-2.554,2.75-6.398,2.035-9.129.541h0ZM199.411,202.452h0c-2.144-2.194-3.74-5.596-1.495-8.578-.288,2.713.769,6.063,1.879,8.541,4.027-2.832,2.865-7.005.584-13.476-3.138,2.638-6.8,8.414-2.305,12.601.655.583,1.159.813,1.336.913h0ZM192.809,210.324h0c2.543,1.767,6.283,2.877,9.136.408-2.799.588-6.423-.018-9.142-.776,2.488-4.133,6.985-3.524,14.012-2.127-2.389,3.271-7.995,7.404-12.895,3.65-.686-.55-.985-1-1.111-1.155h0ZM192.046,209.603h0c-.166-.118-.64-.398-1.224-1.046-3.988-4.628.314-9.989,3.737-12.285,1.524,6.668,2.2,10.937-2.127,13.334-.819-2.578-1.486-6.018-.888-8.684-2.575,2.733-1.378,6.279.502,8.681h0ZM184.58,216.743h0c.107.168.353.645.97,1.263,4.441,4.24,10.487.714,13.236-2.29-6.824-2.118-11.223-3.189-14.17.661,2.615,1.036,6.147,2.014,8.998,1.719-3.119,2.157-6.71.667-9.035-1.354h0ZM183.904,215.948h0c-1.594-2.584-2.374-6.232.497-8.682-.9,2.59-.632,6.078-.113,8.725,4.577-1.935,4.395-6.248,3.644-13.034-3.664,1.927-8.557,6.81-5.124,11.825.506.704.947,1.032,1.096,1.166h0ZM175.664,222.272h0c2.079,2.25,5.478,4.104,8.826,2.281-2.868-.002-6.267-1.341-8.748-2.641,3.372-3.522,7.622-2.001,14.162.811-3.077,2.701-9.492,5.579-13.419.904-.545-.678-.733-1.178-.821-1.356h0ZM175.083,221.412h0c-.134-.151-.534-.521-.957-1.274-2.837-5.339,2.586-9.686,6.451-11.222-.033,6.823-.346,11.13-5.117,12.578-.212-2.686-.078-6.181,1.113-8.661-3.136,2.137-2.777,5.845-1.49,8.579h0ZM166.166,226.843h0c.067.186.198.703.66,1.433,3.368,5.054,10.075,2.858,13.444.492-6.178-3.473-10.229-5.425-13.984-2.274,2.318,1.55,5.542,3.234,8.393,3.532-3.538,1.464-6.704-.73-8.512-3.183h0ZM165.688,225.928h0c-.967-2.851-.898-6.575,2.464-8.373-1.468,2.342-2.001,5.802-2.1,8.495,4.91-.946,5.716-5.195,6.531-11.975-4.018,1.128-9.907,4.886-7.699,10.489.334.792.688,1.202.804,1.365h0ZM156.201,230.404h0c1.516,2.624,4.411,5.134,8.095,4.046-2.798-.593-5.811-2.601-7.937-4.383,4.095-2.742,7.898-.381,13.641,3.712-3.622,2.002-10.54,3.49-13.308-1.883-.376-.774-.447-1.301-.491-1.492h0ZM155.83,229.442h0c-.097-.173-.402-.617-.642-1.44-1.552-5.798,4.733-8.923,8.856-9.626-1.588,6.655-2.876,10.794-7.864,11.225.406-2.665,1.334-6.05,3.062-8.225-3.548,1.439-4.045,5.133-3.412,8.066h0ZM145.887,232.908h0c.023.195.033.726.317,1.535,2.134,5.628,9.183,4.865,13.012,3.25-5.239-4.664-8.747-7.404-13.132-5.102,1.908,1.991,4.672,4.298,7.387,5.178-3.788.7-6.377-2.095-7.583-4.861h0ZM145.628,231.916h0c-.292-2.982.624-6.604,4.318-7.665-1.968,1.982-3.278,5.25-3.989,7.859,5.009.089,6.764-3.893,9.106-10.343-4.179.271-10.786,2.727-9.909,8.651.146.842.399,1.316.474,1.498h0ZM135.347,234.329h0c.882,2.875,3.135,5.922,6.98,5.618-2.597-1.156-5.079-3.736-6.749-5.914,4.624-1.833,7.796,1.255,12.47,6.435-3.991,1.207-11.086,1.236-12.561-4.581-.191-.834-.14-1.362-.14-1.559h0ZM135.203,233.315h0c-.055-.189-.251-.686-.299-1.538-.192-5.98,6.657-7.736,10.842-7.573-3.067,6.169-5.27,9.945-10.238,9.338,1.004-2.52,2.681-5.631,4.866-7.399-3.792.674-5.119,4.178-5.171,7.172h0ZM96.154,54.171h0c-.397-2.972.394-6.618,4.048-7.797-1.898,2.044-3.095,5.352-3.712,7.98,5.008-.068,6.625-4.102,8.742-10.622-4.168.402-10.686,3.064-9.603,8.958.174.836.442,1.301.525,1.482h0ZM96.446,55.154h0c1.302,2.727,3.987,5.439,7.747,4.621-2.742-.794-5.586-3.014-7.563-4.945,4.303-2.436,7.906.192,13.304,4.689-3.771,1.734-10.788,2.717-13.117-2.841-.313-.799-.342-1.33-.371-1.524h0ZM86.26,57.907h0c-.735-2.913-.369-6.62,3.129-8.171-1.651,2.229-2.461,5.641-2.775,8.317,4.97-.586,6.115-4.765,7.47-11.465-4.096.831-10.27,4.153-8.516,9.899.269.814.589,1.249.692,1.419h0ZM86.663,58.854h0c.052.19.14.716.544,1.478,2.953,5.282,9.816,3.578,13.366,1.463-5.883-3.911-9.766-6.15-13.763-3.281,2.186,1.714,5.268,3.626,8.085,4.131-3.644,1.204-6.625-1.214-8.232-3.791h0ZM76.854,62.646h0c-1.065-2.819-1.125-6.542,2.172-8.446-1.385,2.386-1.799,5.861-1.804,8.556,4.873-1.1,5.532-5.371,6.111-12.173-3.977,1.252-9.734,5.194-7.332,10.723.36.782.729,1.181.852,1.339h0ZM77.364,63.546h0c1.893,2.393,5.133,4.489,8.618,2.914-2.859-.211-6.141-1.791-8.512-3.268,3.645-3.266,7.761-1.443,14.056,1.834-3.285,2.47-9.912,4.876-13.453-.069-.487-.716-.637-1.229-.709-1.411h0ZM68.048,68.332h0c-1.381-2.691-1.869-6.386,1.19-8.62-1.103,2.516-1.116,6.013-.811,8.691,4.718-1.598,4.883-5.912,4.677-12.733-3.809,1.657-9.078,6.172-6.057,11.42.448.74.861,1.098,1,1.243h0ZM68.658,69.173h0c.094.175.3.668.868,1.331,4.087,4.549,10.399,1.469,13.381-1.326-6.635-2.604-10.935-3.992-14.184-.366,2.527,1.221,5.97,2.453,8.835,2.366-3.284,1.926-6.744.18-8.901-2.004h0ZM59.947,74.897h0c-.155-.13-.606-.443-1.136-1.132-3.607-4.903,1.113-9.937,4.711-11.979.986,6.758,1.316,11.063-3.19,13.142-.611-2.63-.999-6.109-.19-8.725-2.785,2.539-1.877,6.162-.195,8.693h0ZM60.65,75.671h0c2.394,1.947,6.034,3.323,9.077,1.069-2.839.384-6.403-.483-9.054-1.436,2.812-3.941,7.246-3.008,14.14-1.107-2.643,3.089-8.564,6.803-13.149,2.705-.64-.598-.901-1.067-1.015-1.231h0ZM52.648,82.263h0c-1.964-2.342-3.282-5.849-.804-8.662-.504,2.684.282,6.101,1.19,8.653,4.242-2.533,3.418-6.778,1.662-13.396-3.341,2.404-7.455,7.897-3.308,12.397.606.628,1.091.894,1.26,1.007h0ZM53.435,82.959h0c.131.151.445.591,1.15,1.119,5.027,3.599,10.487-.708,12.76-4.052-7.071-1.175-11.586-1.644-13.93,2.566,2.745.671,6.388,1.163,9.165.488-2.766,2.557-6.542,1.565-9.145-.122h0ZM46.236,90.342h0c-.181-.095-.693-.308-1.367-.87-4.639-4.044-1.18-9.932,1.866-12.666,2.504,6.395,3.809,10.529-.117,13.486-1.195-2.441-2.368-5.756-2.175-8.477-2.14,3.052-.428,6.401,1.793,8.526h0ZM47.098,90.951h0c2.782,1.408,6.648,2.001,9.105-.827-2.683.959-6.36.847-9.166.465,1.847-4.428,6.388-4.431,13.552-3.995-1.877,3.56-6.809,8.406-12.221,5.35-.761-.453-1.123-.856-1.271-.994h0ZM40.789,99.037h0c-2.45-1.883-4.537-5.035-2.76-8.29.121,2.725,1.667,5.898,3.135,8.201,3.563-3.347,1.791-7.322-1.432-13.418-2.713,3.033-5.477,9.245-.401,12.782.735.49,1.267.648,1.458.724h0ZM41.717,99.554h0c.163.121.569.484,1.378.855,5.729,2.477,10.076-2.852,11.533-6.586-7.171.31-11.685.785-13.012,5.375,2.832.091,6.499-.179,9.057-1.411-2.117,3.066-6.03,2.877-8.956,1.767h0ZM36.373,108.244h0c-.199-.055-.747-.157-1.533-.568-5.452-2.991-3.416-9.451-1.067-12.749,3.903,5.726,6.12,9.493,2.962,13.19-1.724-2.137-3.625-5.132-4.057-7.827-1.393,3.421,1.043,6.337,3.694,7.954h0ZM37.354,108.662h0c3.037.802,6.947.584,8.7-2.683-2.401,1.49-6.016,2.139-8.842,2.342.794-4.702,5.226-5.641,12.319-6.693-1.02,3.862-4.73,9.61-10.709,7.742-.845-.285-1.292-.605-1.468-.708h0ZM33.039,117.856h0c-2.821-1.333-5.578-3.979-4.585-7.525.739,2.636,2.972,5.415,4.931,7.361,2.716-4.002.078-7.516-4.458-12.805-1.958,3.521-3.239,10.154,2.524,12.563.828.326,1.385.37,1.588.406h0ZM34.064,118.169h0c.186.084.666.356,1.539.551,6.158,1.238,9.186-4.861,9.757-8.806-6.93,1.781-11.228,3.174-11.477,7.931,2.786-.496,6.305-1.515,8.521-3.245-1.369,3.428-5.231,4.05-8.34,3.569h0ZM30.829,127.755h0c-.207-.013-.765,0-1.626-.24-6.004-1.796-5.491-8.522-3.95-12.225,5.117,4.786,8.14,8.007,5.901,12.266-2.171-1.73-4.709-4.262-5.746-6.804-.58,3.626,2.463,5.97,5.421,7.003h0ZM31.883,127.96h0c3.146.155,6.915-.862,7.881-4.413-2.004,1.95-5.386,3.328-8.097,4.109-.299-4.754,3.815-6.584,10.499-9.072-.115,3.98-2.425,10.356-8.688,9.765-.891-.103-1.4-.324-1.594-.388h0ZM29.767,137.824h0c-3.059-.72-6.353-2.735-6.193-6.4,1.322,2.421,4.136,4.674,6.493,6.169,1.737-4.466-1.638-7.354-7.273-11.581-1.107,3.841-.846,10.579,5.328,11.743.884.147,1.439.078,1.645.069h0ZM30.837,137.919h0c.201.043.732.209,1.63.22,6.292-.062,7.859-6.639,7.515-10.608-6.359,3.167-10.237,5.413-9.395,10.107,2.606-1.057,5.809-2.778,7.578-4.924-.554,3.63-4.182,5.033-7.328,5.205h0ZM29.867,147.943h0c-.205.031-.747.157-1.643.102-6.271-.516-7.304-7.189-6.644-11.12,6.088,3.617,9.774,6.138,8.559,10.757-2.514-1.242-5.57-3.19-7.161-5.458.26,3.66,3.766,5.32,6.889,5.719h0ZM30.941,147.926h0c3.107-.496,6.553-2.267,6.686-5.932-1.511,2.316-4.498,4.358-6.968,5.679-1.373-4.579,2.223-7.213,8.181-11.02.795,3.909-.006,10.61-6.254,11.323-.894.083-1.44-.028-1.645-.051h0ZM31.126,157.992h0c-3.151-.072-6.825-1.361-7.504-4.971,1.843,2.09,5.103,3.709,7.745,4.683.678-4.717-3.276-6.84-9.741-9.806-.205,3.978,1.588,10.503,7.881,10.366.897-.039,1.42-.22,1.621-.271h0ZM32.193,157.864h0c.206.002.762.054,1.641-.121,6.129-1.357,6.157-8.1,4.917-11.905-5.484,4.403-8.758,7.395-6.867,11.803,2.304-1.569,5.038-3.91,6.275-6.368.288,3.657-2.935,5.775-5.966,6.59h0ZM33.531,167.849h0c-3.139.256-6.941-.644-8.03-4.164,2.071,1.887,5.499,3.159,8.236,3.854.133-4.76-4.041-6.461-10.807-8.738.253,3.975,2.783,10.275,9.022,9.487.887-.13,1.387-.366,1.58-.438h0ZM34.577,167.611h0c2.921-1.125,5.88-3.563,5.175-7.169-.947,2.572-3.397,5.182-5.506,6.981-2.387-4.188.524-7.501,5.472-12.445,1.668,3.653,2.414,10.359-3.523,12.344-.853.265-1.412.27-1.617.289h0ZM37.053,177.4h0c-3.092.579-6.973.078-8.459-3.307,2.275,1.661,5.829,2.569,8.629,2.976-.414-4.745-4.758-6.004-11.746-7.565.708,3.924,3.945,9.924,10.056,8.495.866-.222,1.337-.508,1.52-.599h0ZM38.065,177.055h0c.201-.04.756-.104,1.574-.456,5.674-2.589,4.163-9.177,2.085-12.635-4.351,5.428-6.865,9.023-4.011,12.938,1.891-2.007,4.026-4.856,4.672-7.512,1.116,3.512-1.547,6.244-4.32,7.664h0ZM41.649,186.528h0c-3.007.896-6.923.801-8.789-2.41,2.452,1.415,6.088,1.95,8.919,2.064-.957-4.674-5.419-5.475-12.544-6.304,1.153,3.83,5.06,9.457,10.971,7.402.836-.31,1.271-.643,1.442-.753h0ZM42.616,186.08h0c2.594-1.7,4.927-4.691,3.416-8.066-.338,2.707-2.133,5.759-3.783,7.952-3.285-3.596-1.199-7.431,2.503-13.277,2.462,3.221,4.72,9.614-.623,12.775-.773.434-1.316.554-1.513.616h0ZM47.265,195.125h0c-2.885,1.202-6.789,1.513-9.012-1.485,2.599,1.152,6.275,1.308,9.103,1.126-1.487-4.546-6.014-4.878-13.193-4.963,1.585,3.685,6.115,8.875,11.755,6.219.795-.395,1.189-.772,1.347-.898h0ZM48.175,194.58h0c.188-.083.715-.257,1.433-.77,4.949-3.696,1.971-9.816-.846-12.763-3.009,6.194-4.643,10.222-.966,13.457,1.388-2.349,2.823-5.571,2.848-8.296,1.89,3.198-.086,6.412-2.469,8.372h0ZM53.834,203.088h0c-.142.142-.49.556-1.235,1.033-5.302,3.224-10.401-1.466-12.4-4.965,7.146-.661,11.684-.799,13.684,3.567-2.789.472-6.461.699-9.177-.177,2.553,2.75,6.398,2.035,9.128.541h0ZM54.676,202.452h0c2.144-2.194,3.74-5.596,1.494-8.577.288,2.712-.768,6.062-1.879,8.54-4.027-2.832-2.865-7.005-.584-13.477,3.138,2.639,6.801,8.414,2.306,12.601-.656.583-1.159.813-1.336.913h0ZM61.278,210.324h0c-2.544,1.767-6.283,2.877-9.138.408,2.801.588,6.425-.018,9.143-.776-2.488-4.133-6.984-3.524-14.011-2.127,2.389,3.271,7.994,7.404,12.894,3.65.686-.55.985-1,1.111-1.155h0ZM62.041,209.603h0c.165-.118.64-.398,1.223-1.046,3.989-4.628-.314-9.989-3.736-12.285-1.525,6.668-2.201,10.937,2.126,13.335.82-2.579,1.486-6.019.889-8.685,2.575,2.733,1.378,6.278-.502,8.681h0ZM69.506,216.743h0c-.107.168-.352.645-.971,1.263-4.44,4.24-10.487.714-13.236-2.29,6.824-2.118,11.223-3.189,14.171.661-2.615,1.036-6.148,2.014-8.999,1.719,3.12,2.157,6.71.667,9.035-1.354h0ZM70.182,215.948h0c1.594-2.584,2.376-6.232-.496-8.681.899,2.588.631,6.077.112,8.726-4.577-1.937-4.395-6.25-3.644-13.036,3.665,1.928,8.558,6.811,5.124,11.825-.506.704-.946,1.032-1.096,1.166h0ZM78.423,222.272h0c-2.08,2.25-5.477,4.104-8.826,2.281,2.867-.002,6.267-1.341,8.748-2.641-3.372-3.522-7.622-2.001-14.163.81,3.078,2.701,9.493,5.581,13.42.905.544-.678.733-1.178.821-1.356h0ZM79.003,221.412h0c.135-.151.534-.521.957-1.274,2.837-5.34-2.585-9.686-6.451-11.223.033,6.823.347,11.129,5.118,12.578.211-2.686.077-6.181-1.114-8.661,3.137,2.137,2.777,5.845,1.49,8.579h0ZM87.921,226.843h0c-.066.187-.197.704-.661,1.434-3.366,5.055-10.074,2.858-13.443.492,6.178-3.473,10.229-5.425,13.984-2.274-2.317,1.55-5.541,3.234-8.392,3.533,3.538,1.463,6.703-.731,8.512-3.185h0ZM88.399,225.928h0c.966-2.851.897-6.575-2.466-8.372,1.468,2.341,2.003,5.802,2.102,8.494-4.91-.946-5.716-5.195-6.531-11.975,4.018,1.128,9.907,4.886,7.699,10.489-.334.792-.688,1.202-.804,1.365h0ZM97.886,230.404h0c-1.517,2.624-4.411,5.134-8.095,4.046,2.798-.593,5.812-2.601,7.937-4.383-4.094-2.742-7.897-.381-13.64,3.712,3.621,2.002,10.54,3.491,13.307-1.883.377-.774.447-1.301.492-1.492h0ZM98.256,229.442h0c.097-.173.402-.617.642-1.44,1.553-5.798-4.733-8.923-8.856-9.626,1.588,6.655,2.877,10.794,7.865,11.226-.406-2.667-1.333-6.051-3.063-8.227,3.549,1.439,4.045,5.133,3.412,8.066h0ZM108.199,232.907h0c-.022.196-.032.727-.317,1.536-2.134,5.628-9.183,4.865-13.012,3.25,5.24-4.664,8.748-7.404,13.133-5.102-1.909,1.991-4.673,4.298-7.387,5.178,3.788.7,6.377-2.094,7.582-4.862h0ZM118.883,233.315h0c-.051-2.994-1.377-6.498-5.17-7.172,2.183,1.768,3.861,4.879,4.866,7.399-4.969.606-7.172-3.169-10.238-9.338,4.185-.163,11.034,1.593,10.842,7.573-.048.852-.245,1.349-.3,1.538h0ZM108.459,231.916h0c.292-2.982-.624-6.604-4.317-7.665,1.968,1.982,3.278,5.25,3.988,7.859-5.009.089-6.763-3.893-9.106-10.343,4.18.271,10.786,2.727,9.909,8.651-.146.842-.398,1.316-.474,1.498Z" fill="url(#Sky)" fill-rule="evenodd"/>
    <g>
      <path d="M22.863,131.837c.397.353.625.859.625,1.39s-.228,1.037-.625,1.39L1.254,153.786h64.821l-30.36-15.507c-.021-.011-.036-.028-.057-.04-.111-.062-.214-.134-.31-.217-.023-.02-.048-.037-.071-.058-.108-.103-.202-.219-.283-.346-.018-.028-.031-.058-.048-.088-.059-.105-.108-.216-.146-.332-.013-.039-.026-.076-.036-.115-.038-.148-.064-.3-.064-.459v-23.955H1.254l21.608,19.168Z" fill="#1f1f1f" stroke="#000" stroke-miterlimit="10"/>
      <path d="M219.321,137.083c-.01.039-.023.077-.036.115-.038.117-.086.227-.146.332-.017.029-.03.059-.048.088-.081.127-.175.242-.282.346-.022.021-.047.038-.071.058-.095.083-.199.155-.31.217-.02.011-.036.029-.057.04l-30.36,15.507h64.821l-21.608-19.169c-.398-.353-.625-.859-.625-1.39s.228-1.037.625-1.39l21.608-19.168h-33.448v23.955c0,.159-.026.311-.064.459Z" fill="#1f1f1f" stroke="#000" stroke-miterlimit="10"/>
      <polygon points="71.941 138.482 44.284 138.482 71.941 152.609 71.941 138.482" fill="#1f1f1f" stroke="#000" stroke-miterlimit="10"/>
      <polygon points="182.146 152.609 209.803 138.482 182.146 138.482 182.146 152.609" fill="#1f1f1f" stroke="#000" stroke-miterlimit="10"/>
      <polygon points="215.668 134.765 215.668 94.826 215.668 93.649 38.419 93.649 38.419 94.826 38.419 134.765 215.668 134.765" fill="#1f1f1f" stroke="#000" stroke-miterlimit="10"/>
    </g>
    <text transform="translate(58 119.27) scale(1.314 1)" fill="#fff" font-family="Blackpast-Regular, Blackpast" font-size="21" stroke="#3fa9f5" stroke-miterlimit="10"><tspan x="0" y="0">Amateur</tspan></text>
  </g>
</svg>