<?xml version="1.0" encoding="UTF-8"?>
<svg xmlns="http://www.w3.org/2000/svg" version="1.1" viewBox="0 0 256 256">
  <!-- Generator: Adobe Illustrator 29.5.1, SVG Export Plug-In . SVG Version: 2.1.0 Build 141)  -->
  <g id="Layer_2" display="none">
    <rect y="0" width="256" height="256"/>
  </g>
  <g id="Layer_4">
    <path d="M122.198,217.727c-2.609,1.065-12.873,1.507-12.873,1.507-7.409,1.018-16.063-.32-23.098-3.738-1.575-2.649-.107-4.081,1.021-6.918.882-2.791,2.75-6.533,2.849-9.486-2.686-6.53-5.273-13.056-1.093-19.646-4.141,5.225-8.572,11.679-13.129,16.822-6.595,7.493,2.175,13.362,7.932,18.069-7.481-3.799-14.605-9.571-20.456-15.908-.471-2.996,1.489-4.005,3.735-6.291,1.901-2.425,5.539-5.521,5.918-8.637-.874-6.738-1.778-14.274,3.594-19.875-2.964,2.549-11.859,10.628-16.38,13.574-8.427,5.999-1.279,13.131,1.561,19.514-2.764-3.46-17.279-20.079-13.331-23.644.652-.995,1.848-1.44,3.133-2.113,2.631-2.041,7.46-4.688,8.637-7.731.761-6.38,1.72-13.822,8.012-18.027-.991.592-9.284,5.292-12.194,6.866-3.272,2.071-7.472,2.907-9.807,5.648-4.518,5.096.196,10.954.262,16.344-1.872-4.539-11.638-23.127-6.692-26.093,1.405-1.211,2.421-.877,4.507-1.873,2.544-1.267,7.305-2.846,8.786-5.103,2.347-5.721,5.234-11.834,12.171-14.296-3.871,1.154-8.957,2.53-13.063,3.69-4.186,1.4-9.239,1.245-11.94,4.586-3.915,4.064-1.01,9.413-2.651,13.971-1.292-8.213-3.423-17.284-.819-25.154,1.691-2.158,3.734-1.985,6.712-2.367,2.562-.505,6.256-1.075,8.643-2.181,4.756-4.5,8.376-10.332,16.179-11.233-1.01.085-10.044.642-12.951.807-4.739.364-10.382-.787-13.66,2.962-3.461,3.091-2.49,8.033-5.469,11.291,1.143-6.916,2.852-19.664,7.926-24.799,1.526-1.013,3.36-1.472,5.294-.805.393.072,6.752.368,8.475.166,3.58-.491,5.54-2.83,8.423-4.557,2.488-1.873,8.683-3.245,11.323-3.116-3.649-.369-8.225-.913-12.138-1.491-5.175-.895-10.68-2.805-14.783,1.087-3.037,2.367-3.748,6.347-7.322,8.262,3.491-7.459,8.405-14.738,13.82-21.175.014.019.058.053.058.053,1.8-1.427,5.094-2.692,7.481-1.173.389.126,6.074,1.493,7.743,1.515,3.742.016,5.748-1.857,9.185-3.319,2.76-1.519,9.143-2.503,11.764-2.27-4.932-.815-11.772-2.121-16.575-3.973-3.665-1.446-7.503-.198-10.36,1.87-2.539,1.997-4.42,4.769-7.883,5.637,1.661-1.921,3.392-3.827,5.095-5.608,1.445-1.514,6.763-8.336,8.552-10.639,1.255-.817,2.733-1.402,4.406-1.363,0,0,10.236-2.577,11.266-4.918,2.904-5.802,6.631-14.656,12.912-18.151,0,0-11.277,5.522-19.485,7.137-6.471,1.277-8.797,7.392-8.797,12.233,0,1.79-.663,3.348-1.511,4.63-6.961,6.761-11.311,10.873-14.428,14.238.179-1.939,1.16-4.018,2.741-5.531,3.28-3.226,6.319-8.414,3.19-12.538-3.037-4.026-5.348-10.226-6.686-14.661,1.248,5.538-3.764,14.211-5.737,18.968-.886,2.042,2.488,6.937,3.942,8.848,5.495,4.727-2.411,9.151-5.012,13.365-3.256,4.443-6.14,9.111-8.563,13.95-.329-3.249,2.366-5.853,3.055-8.969,2.174-5.678-2.44-9.707-6.024-13.911-2.263-3.029-4.733-7.587-5.969-10.596,1.994,6.669-.394,13.852-1.413,20.233-1.548,3.988,3.476,7.861,6.337,10.27,5.484,2.222,1.989,7.084.657,10.612-2.29,5.987-3.874,12.292-4.717,18.645-1.428-3.39.663-7.031-.364-10.507-.643-5.951-6.474-8.25-11.244-11.74-3.512-2.716-7.253-6.552-9.702-9.678,2.494,4.721,5.202,10.702,5.073,16.077.648,7.96,2.424,10.525,10.795,13.944,2.544.469,4.354,1.728,5.218,3.765-.993,8.397-.475,16.842,1.181,25.235-2.658-3.664-1.734-8.416-5.345-11.988-2.905-3.99-8.123-4.922-12.851-6.548-5.204-1.983-10.899-5.288-15.092-8.156,3.923,3.781,8.68,8.756,10.859,13.653,3.383,7.933,5.345,10.89,15.193,12.459,3.393.423,5.568.183,7.671,2.558,1.779,8.286,4.71,16.404,8.519,24.115-4.511-4.835-5.174-10.418-13.504-13-4.133-1.426-8.217-.728-12.754-1.681C10.786,158.869,4.656,157.202,0,155.533c4.988,2.582,10.378,5.67,14.547,9.281,4.395,4.914,8.297,10.773,16.3,10.584,6.849.767,7.78-1.688,12.568,1.02,3.891,7.64,9.09,15.348,14.684,21.711-6.119-4.318-7.95-9.079-17.478-10.127-4.535-.596-8.958.887-13.564.788-5.841.169-12.182-.291-17.786-1.058,4.683,1.191,10.861,3.234,15.449,5.24,4.294,1.756,7.029,5.338,10.655,6.562,3.438,2.33,7.247,3.119,11.629,2.211,2.222-.309,3.95-.664,5.689-1.086,2.389-1.157,4.712-1.466,7.189-.575,6.202,6.753,13.653,12.871,21.668,16.95-7.986-2.472-11.849-6.383-21.643-5.088-4.957.515-8.45,2.85-13.6,3.836-6.122,1.459-12.666,2.243-18.761,2.514,4.005.258,16.043,1.458,21.5,3.091,3.996,1.552,7.489,3.386,11.841,3.788,2.39.512,3.996,1.435,6.834.618,2.941-.656,6.507-2.432,8.799-3.808,2.892-1.982,3.981-3.664,7.633-3.69,5.399,2.608,12.967,4.509,18.497,4.577,2.984,2.209,5.483,5.93-.617,11.271-4.646,4.056-2.609,15.926-2.414,16.993-2.147-7.314,16.176-20.728,8.345-28.449,8.284-.987,12.012,1.036,12.141,3.086-2.595,3.798.87,8.342.87,8.342-.691-4.096,3.826-6.822,5.048-11.565,1.713-3.968.323-6.087-3.826-4.825Z" fill="blue" stroke="#d9e021" stroke-miterlimit="10" stroke-width="1.023"/>
    <path d="M133.802,217.727c2.609,1.065,12.873,1.507,12.873,1.507,7.409,1.018,16.063-.32,23.098-3.738,1.575-2.649.107-4.081-1.021-6.918-.882-2.791-2.75-6.533-2.849-9.486,2.686-6.53,5.273-13.056,1.093-19.646,4.141,5.225,8.572,11.679,13.129,16.822,6.595,7.493-2.175,13.362-7.932,18.069,7.481-3.799,14.605-9.571,20.456-15.908.471-2.996-1.489-4.005-3.735-6.291-1.901-2.425-5.539-5.521-5.918-8.637.874-6.738,1.778-14.274-3.594-19.875,2.964,2.549,11.859,10.628,16.38,13.574,8.427,5.999,1.279,13.131-1.561,19.514,2.764-3.46,17.279-20.079,13.331-23.644-.652-.995-1.848-1.44-3.133-2.113-2.631-2.041-7.46-4.688-8.637-7.731-.761-6.38-1.72-13.822-8.012-18.027.991.592,9.284,5.292,12.194,6.866,3.272,2.071,7.472,2.907,9.807,5.648,4.518,5.096-.196,10.954-.262,16.344,1.872-4.539,11.638-23.127,6.692-26.093-1.405-1.211-2.421-.877-4.507-1.873-2.544-1.267-7.305-2.846-8.786-5.103-2.347-5.721-5.234-11.834-12.171-14.296,3.871,1.154,8.957,2.53,13.063,3.69,4.186,1.4,9.239,1.245,11.94,4.586,3.915,4.064,1.01,9.413,2.651,13.971,1.292-8.213,3.423-17.284.819-25.154-1.691-2.158-3.734-1.985-6.712-2.367-2.562-.505-6.256-1.075-8.643-2.181-4.756-4.5-8.376-10.332-16.179-11.233,1.01.085,10.044.642,12.951.807,4.739.364,10.382-.787,13.66,2.962,3.461,3.091,2.49,8.033,5.469,11.291-1.143-6.916-2.852-19.664-7.926-24.799-1.526-1.013-3.36-1.472-5.294-.805-.393.072-6.752.368-8.475.166-3.58-.491-5.54-2.83-8.423-4.557-2.488-1.873-8.683-3.245-11.323-3.116,3.649-.369,8.225-.913,12.138-1.491,5.175-.895,10.68-2.805,14.783,1.087,3.037,2.367,3.748,6.347,7.322,8.262-3.491-7.459-8.405-14.738-13.82-21.175-.014.019-.058.053-.058.053-1.8-1.427-5.094-2.692-7.481-1.173-.389.126-6.074,1.493-7.743,1.515-3.742.016-5.748-1.857-9.185-3.319-2.76-1.519-9.143-2.503-11.764-2.27,4.932-.815,11.772-2.121,16.575-3.973,3.665-1.446,7.503-.198,10.36,1.87,2.539,1.997,4.42,4.769,7.883,5.637-1.661-1.921-3.392-3.827-5.095-5.608-1.445-1.514-6.763-8.336-8.552-10.639-1.255-.817-2.733-1.402-4.406-1.363,0,0-10.236-2.577-11.266-4.918-2.904-5.802-6.631-14.656-12.912-18.151,0,0,11.277,5.522,19.485,7.137,6.471,1.277,8.797,7.392,8.797,12.233,0,1.79.663,3.348,1.511,4.63,6.961,6.761,11.311,10.873,14.428,14.238-.179-1.939-1.16-4.018-2.741-5.531-3.28-3.226-6.319-8.414-3.19-12.538,3.037-4.026,5.348-10.226,6.686-14.661-1.248,5.538,3.764,14.211,5.737,18.968.886,2.042-2.488,6.937-3.942,8.848-5.495,4.727,2.411,9.151,5.012,13.365,3.256,4.443,6.14,9.111,8.563,13.95.329-3.249-2.366-5.853-3.055-8.969-2.174-5.678,2.44-9.707,6.024-13.911,2.263-3.029,4.733-7.587,5.969-10.596-1.994,6.669.394,13.852,1.413,20.233,1.548,3.988-3.476,7.861-6.337,10.27-5.484,2.222-1.989,7.084-.657,10.612,2.29,5.987,3.874,12.292,4.717,18.645,1.428-3.39-.663-7.031.364-10.507.643-5.951,6.474-8.25,11.244-11.74,3.512-2.716,7.253-6.552,9.702-9.678-2.494,4.721-5.202,10.702-5.073,16.077-.648,7.96-2.424,10.525-10.795,13.944-2.544.469-4.354,1.728-5.218,3.765.993,8.397.475,16.842-1.181,25.235,2.658-3.664,1.734-8.416,5.345-11.988,2.905-3.99,8.123-4.922,12.851-6.548,5.204-1.983,10.899-5.288,15.092-8.156-3.923,3.781-8.68,8.756-10.859,13.653-3.383,7.933-5.345,10.89-15.193,12.459-3.393.423-5.568.183-7.671,2.558-1.779,8.286-4.71,16.404-8.519,24.115,4.511-4.835,5.174-10.418,13.504-13,4.133-1.426,8.217-.728,12.754-1.681,5.355-.861,11.485-2.528,16.141-4.197-4.988,2.582-10.378,5.67-14.547,9.281-4.395,4.914-8.297,10.773-16.3,10.584-6.849.767-7.78-1.688-12.568,1.02-3.891,7.64-9.09,15.348-14.684,21.711,6.119-4.318,7.95-9.079,17.478-10.127,4.535-.596,8.958.887,13.564.788,5.841.169,12.182-.291,17.786-1.058-4.683,1.191-10.861,3.234-15.449,5.24-4.294,1.756-7.029,5.338-10.655,6.562-3.438,2.33-7.247,3.119-11.629,2.211-2.222-.309-3.95-.664-5.689-1.086-2.389-1.157-4.712-1.466-7.189-.575-6.202,6.753-13.653,12.871-21.668,16.95,7.986-2.472,11.849-6.383,21.643-5.088,4.957.515,8.45,2.85,13.6,3.836,6.122,1.459,12.666,2.243,18.761,2.514-4.005.258-16.043,1.458-21.5,3.091-3.996,1.552-7.489,3.386-11.841,3.788-2.39.512-3.996,1.435-6.834.618-2.941-.656-6.507-2.432-8.799-3.808-2.892-1.982-3.981-3.664-7.633-3.69-5.399,2.608-12.967,4.509-18.497,4.577-2.984,2.209-5.483,5.93.617,11.271,4.646,4.056,2.609,15.926,2.414,16.993,2.147-7.314-16.176-20.728-8.345-28.449-8.284-.987-12.012,1.036-12.141,3.086,2.595,3.798-.87,8.342-.87,8.342.691-4.096-3.826-6.822-5.048-11.565-1.713-3.968-.323-6.087,3.826-4.825Z" fill="blue" stroke="#d9e021" stroke-miterlimit="10" stroke-width="1.023"/>
    <g>
      <path d="M128.043,209.3c2.36,0,7.675-1.763,7.929-11.557,0,0-3.148.956-7.929.956s-7.929-.956-7.929-.956c.253,9.794,5.569,11.557,7.929,11.557Z" fill="#fffc2e" stroke="#0005b9" stroke-miterlimit="10"/>
      <path d="M119.813,185.323c-8.143-19.423-18.08-37.005-51.555-30.564,15.384,5.662,32.965,41.717,59.786,41.717s44.402-36.054,59.786-41.717c-33.475-6.441-43.412,11.141-51.555,30.564,11.073-30.252,2.028-42.228-8.231-57.188-10.258,14.96-19.304,26.936-8.231,57.188ZM137.898,191.086c6.573-15.16,14.785-28.956,35.405-29.773-9.941,9.851-21.305,23.997-35.405,29.773ZM82.783,161.313c20.62.817,28.833,14.612,35.406,29.773-14.101-5.775-25.465-19.922-35.406-29.773ZM128.043,142.823c14.856,15.433,5.569,37.103,0,47.274-5.569-10.172-14.856-31.842,0-47.274Z" fill="#fffc2e" stroke="#0005b9" stroke-miterlimit="10"/>
    </g>
  </g>
  <g id="Layer_3">
    <line x1="100.783" y1="30.641" x2="102.935" y2="41.255" fill="#090045" opacity=".01" stroke="#231f20" stroke-linecap="round" stroke-miterlimit="10" stroke-width=".25"/>
    <line x1="155.435" y1="30.609" x2="153.217" y2="40.913" fill="#090045" opacity=".04" stroke="#231f20" stroke-linecap="round" stroke-miterlimit="10" stroke-width=".25"/>
    <line x1="112.522" y1="229.815" x2="113.207" y2="227.712" fill="#090045" opacity="0" stroke="#231f20" stroke-linecap="round" stroke-miterlimit="10" stroke-width=".25"/>
    <line x1="142.799" y1="227.663" x2="143.63" y2="229.766" fill="#090045" opacity="0" stroke="#231f20" stroke-linecap="round" stroke-miterlimit="10" stroke-width=".25"/>
    <text transform="translate(58 119.27) scale(1.314 1)" fill="blue" font-family="Blackpast-Regular, Blackpast" font-size="21"><tspan x="0" y="0">prospect</tspan></text>
  </g>
</svg>