<?xml version="1.0" encoding="UTF-8"?>
<svg id="Layer_1" xmlns="http://www.w3.org/2000/svg" version="1.1" xmlns:xlink="http://www.w3.org/1999/xlink" viewBox="0 0 256 256">
  <!-- Generator: Adobe Illustrator 29.5.1, SVG Export Plug-In . SVG Version: 2.1.0 Build 141)  -->
  <defs>
    <linearGradient id="linear-gradient" x1="121.5" y1="206" x2="136.5" y2="206" gradientTransform="translate(0 256) scale(1 -1)" gradientUnits="userSpaceOnUse">
      <stop offset="0" stop-color="#ffe7a3"/>
      <stop offset=".5" stop-color="#ffca05"/>
      <stop offset="1" stop-color="#faac18"/>
    </linearGradient>
    <linearGradient id="linear-gradient1" x1="175.907" y1="185.154" x2="185.261" y2="185.154" gradientTransform="translate(0 256) scale(1 -1)" gradientUnits="userSpaceOnUse">
      <stop offset="0" stop-color="#ffe7a3"/>
      <stop offset=".5" stop-color="#ffca05"/>
      <stop offset="1" stop-color="#faac18"/>
    </linearGradient>
    <linearGradient id="linear-gradient2" x1="154.948" y1="198.46" x2="164.303" y2="198.46" gradientTransform="translate(0 256) scale(1 -1)" gradientUnits="userSpaceOnUse">
      <stop offset="0" stop-color="#ffe7a3"/>
      <stop offset=".5" stop-color="#ffca05"/>
      <stop offset="1" stop-color="#faac18"/>
    </linearGradient>
    <linearGradient id="linear-gradient3" x1="94.633" y1="198.833" x2="103.988" y2="198.833" gradientTransform="translate(0 256) scale(1 -1)" gradientUnits="userSpaceOnUse">
      <stop offset="0" stop-color="#ffe7a3"/>
      <stop offset=".5" stop-color="#ffca05"/>
      <stop offset="1" stop-color="#faac18"/>
    </linearGradient>
    <linearGradient id="linear-gradient4" x1="73.092" y1="184.478" x2="82.446" y2="184.478" gradientTransform="translate(0 256) scale(1 -1)" gradientUnits="userSpaceOnUse">
      <stop offset="0" stop-color="#ffe7a3"/>
      <stop offset=".5" stop-color="#ffca05"/>
      <stop offset="1" stop-color="#faac18"/>
    </linearGradient>
    <linearGradient id="linear-gradient5" x1="72.81" y1="105.21" x2="90.019" y2="105.21" gradientTransform="translate(0 256) scale(1 -1)" gradientUnits="userSpaceOnUse">
      <stop offset="0" stop-color="#ffe7a3"/>
      <stop offset=".5" stop-color="#ffca05"/>
      <stop offset="1" stop-color="#faac18"/>
    </linearGradient>
    <linearGradient id="linear-gradient6" x1="108.685" y1="103.212" x2="129" y2="103.212" gradientTransform="translate(0 256) scale(1 -1)" gradientUnits="userSpaceOnUse">
      <stop offset="0" stop-color="#ffe7a3"/>
      <stop offset=".5" stop-color="#ffca05"/>
      <stop offset="1" stop-color="#faac18"/>
    </linearGradient>
    <linearGradient id="linear-gradient7" x1="90.019" y1="76.153" x2="108.685" y2="76.153" gradientTransform="translate(0 256) scale(1 -1)" gradientUnits="userSpaceOnUse">
      <stop offset="0" stop-color="#ffe7a3"/>
      <stop offset=".5" stop-color="#ffca05"/>
      <stop offset="1" stop-color="#faac18"/>
    </linearGradient>
    <linearGradient id="linear-gradient8" x1="108.685" y1="44.481" x2="129" y2="44.481" gradientTransform="translate(0 256) scale(1 -1)" gradientUnits="userSpaceOnUse">
      <stop offset="0" stop-color="#ffe7a3"/>
      <stop offset=".5" stop-color="#ffca05"/>
      <stop offset="1" stop-color="#faac18"/>
    </linearGradient>
    <linearGradient id="linear-gradient9" x1="51.363" y1="106.814" x2="56.868" y2="106.814" gradientTransform="translate(0 256) scale(1 -1)" gradientUnits="userSpaceOnUse">
      <stop offset="0" stop-color="#ffe7a3"/>
      <stop offset=".5" stop-color="#ffca05"/>
      <stop offset="1" stop-color="#faac18"/>
    </linearGradient>
    <linearGradient id="linear-gradient10" x1="56.868" y1="83.577" x2="72.81" y2="83.577" gradientTransform="translate(0 256) scale(1 -1)" gradientUnits="userSpaceOnUse">
      <stop offset="0" stop-color="#ffe7a3"/>
      <stop offset=".5" stop-color="#ffca05"/>
      <stop offset="1" stop-color="#faac18"/>
    </linearGradient>
    <linearGradient id="linear-gradient11" x1="244.794" y1="148.569" x2="263.304" y2="148.569" gradientTransform="translate(412.294 300.287) rotate(-180)" gradientUnits="userSpaceOnUse">
      <stop offset="0" stop-color="#ffe7a3"/>
      <stop offset=".5" stop-color="#ffca05"/>
      <stop offset="1" stop-color="#faac18"/>
    </linearGradient>
    <linearGradient id="linear-gradient12" x1="287.285" y1="91.946" x2="303.153" y2="91.946" gradientTransform="translate(488.395 241.919) rotate(-180)" gradientUnits="userSpaceOnUse">
      <stop offset="0" stop-color="#ffe7a3"/>
      <stop offset=".5" stop-color="#ffca05"/>
      <stop offset="1" stop-color="#faac18"/>
    </linearGradient>
    <linearGradient id="linear-gradient13" x1="129" y1="73.702" x2="148.99" y2="73.702" gradientTransform="translate(0 256) scale(1 -1)" gradientUnits="userSpaceOnUse">
      <stop offset="0" stop-color="#ffe7a3"/>
      <stop offset=".5" stop-color="#ffca05"/>
      <stop offset="1" stop-color="#faac18"/>
    </linearGradient>
    <linearGradient id="linear-gradient14" x1="167.5" y1="78.421" x2="185.242" y2="78.421" gradientTransform="translate(0 256) scale(1 -1)" gradientUnits="userSpaceOnUse">
      <stop offset="0" stop-color="#ffe7a3"/>
      <stop offset=".5" stop-color="#ffca05"/>
      <stop offset="1" stop-color="#faac18"/>
    </linearGradient>
    <linearGradient id="linear-gradient15" x1="48.229" y1="107.044" x2="51.363" y2="107.044" gradientTransform="translate(0 256) scale(1 -1)" gradientUnits="userSpaceOnUse">
      <stop offset="0" stop-color="#ffe7a3"/>
      <stop offset=".5" stop-color="#ffca05"/>
      <stop offset="1" stop-color="#faac18"/>
    </linearGradient>
    <linearGradient id="linear-gradient16" x1="72.608" y1="58.644" x2="72.608" y2="58.644" gradientTransform="translate(0 256) scale(1 -1)" gradientUnits="userSpaceOnUse">
      <stop offset="0" stop-color="#ffe7a3"/>
      <stop offset=".5" stop-color="#ffca05"/>
      <stop offset="1" stop-color="#faac18"/>
    </linearGradient>
    <linearGradient id="linear-gradient17" x1="67.664" y1="61.28" x2="67.664" y2="61.28" gradientTransform="translate(0 256) scale(1 -1)" gradientUnits="userSpaceOnUse">
      <stop offset="0" stop-color="#ffe7a3"/>
      <stop offset=".5" stop-color="#ffca05"/>
      <stop offset="1" stop-color="#faac18"/>
    </linearGradient>
    <linearGradient id="linear-gradient18" x1="73.36" y1="54.025" x2="90.019" y2="54.025" gradientTransform="translate(0 256) scale(1 -1)" gradientUnits="userSpaceOnUse">
      <stop offset="0" stop-color="#ffe7a3"/>
      <stop offset=".5" stop-color="#ffca05"/>
      <stop offset="1" stop-color="#faac18"/>
    </linearGradient>
    <linearGradient id="linear-gradient19" x1="149.343" y1="48.021" x2="167.987" y2="48.021" gradientTransform="translate(0 256) scale(1 -1)" gradientUnits="userSpaceOnUse">
      <stop offset="0" stop-color="#ffe7a3"/>
      <stop offset=".5" stop-color="#ffca05"/>
      <stop offset="1" stop-color="#faac18"/>
    </linearGradient>
    <linearGradient id="linear-gradient20" x1="185.242" y1="62.473" x2="193.121" y2="62.473" gradientTransform="translate(0 256) scale(1 -1)" gradientUnits="userSpaceOnUse">
      <stop offset="0" stop-color="#ffe7a3"/>
      <stop offset=".5" stop-color="#ffca05"/>
      <stop offset="1" stop-color="#faac18"/>
    </linearGradient>
    <linearGradient id="linear-gradient21" x1="201.11" y1="87.365" x2="206.466" y2="87.365" gradientTransform="translate(0 256) scale(1 -1)" gradientUnits="userSpaceOnUse">
      <stop offset="0" stop-color="#ffe7a3"/>
      <stop offset=".5" stop-color="#ffca05"/>
      <stop offset="1" stop-color="#faac18"/>
    </linearGradient>
  </defs>
  <g id="Layer_2" display="none">
    <rect width="256" height="256"/>
  </g>
  <path d="M123.9,8.101c-4.529-3.188-10.363-4.392-15.756-3.253s-10.272,4.606-13.176,9.363c4.874,2.068,10.204,2.675,15.371,1.561s9.932-3.771,13.561-7.672h0Z" fill="#34004a" stroke="#fff" stroke-miterlimit="10"/>
  <path d="M92.168,15c3.359-4.161,4.931-9.654,4.326-15.001-4.218,1.361-8.305,3.463-11.337,6.74-3.033,3.277-4.898,7.848-4.277,12.302,3.592-1.901,7.372-2.99,11.287-4.041h0Z" fill="#34004a" stroke="#fff" stroke-miterlimit="10"/>
  <path d="M73.628,22.51c2.808-5.301,3.604-11.938,1.933-18.026-4.481,3.385-8.358,7.312-10.657,11.83-2.14,4.205-2.79,9.016-1.239,12.847,2.865-2.559,6.248-4.549,9.964-6.651h0Z" fill="#34004a" stroke="#fff" stroke-miterlimit="10"/>
  <path d="M57.202,34.498c2.216-6.207,2.238-13.925-.437-20.785-4.319,5.444-7.8,10.052-9.259,15.419-1.277,4.697-.86,10.318,1.182,13.587,2.228-2.854,5.143-5.388,8.514-8.221Z" fill="#34004a" stroke="#fff" stroke-miterlimit="10"/>
  <path d="M43.351,48.965c1.027-7.373-.557-16.728-5.112-24.746-3.099,8.725-5.267,15.242-5.228,21.436.032,5.02,1.713,10.258,4.181,12.885,1.353-2.989,3.493-5.976,6.16-9.575h0Z" fill="#34004a" stroke="#fff" stroke-miterlimit="10"/>
  <path d="M32.469,68.234c.098-7.715-2.729-17.564-8.668-25.931-1.765,10.55-2.867,17.976-1.825,24.366.813,4.985,3.184,9.741,5.861,11.805.876-3.032,2.52-6.254,4.633-10.24h0Z" fill="#34004a" stroke="#fff" stroke-miterlimit="10"/>
  <path d="M24.707,87.243c-2.271-6.93-7.934-14.839-14.907-19.348.438,7.933.508,15.107,2.921,20.473,2.047,4.552,6.295,7.905,9.917,9.563-.018-3.435,1.091-6.335,2.07-10.689h0Z" fill="#34004a" stroke="#fff" stroke-miterlimit="10"/>
  <path d="M21.18,106.446c-3.317-6.788-10.404-14.39-18.431-18.282,2.044,8.534,3.49,15.968,6.832,21.02,2.765,4.178,7.389,6.848,11.113,7.964-.509-3.279.153-6.244.486-10.701h0Z" fill="#34004a" stroke="#fff" stroke-miterlimit="10"/>
  <path d="M21.689,130.601c-4.188-6.271-12.22-12.832-20.69-15.588,3.158,8.175,5.578,15.343,9.561,19.891,3.294,3.761,8.231,5.773,12.068,6.366,0,0-.036-4.994-.939-10.669Z" fill="#34004a" stroke="#fff" stroke-miterlimit="10"/>
  <path d="M27.376,156.533c-4.627-5.385-12.711-10.341-20.635-11.479,3.987,7.446,7.174,14.039,11.368,17.768,3.47,3.084,8.147,4.146,11.642,4.018,0,0-.753-4.9-2.376-10.308h0Z" fill="#34004a" stroke="#fff" stroke-miterlimit="10"/>
  <path d="M22.794,106.487c4.362-5.806,13.1-10.58,21.137-12.544-2.949,7.359-5.489,13.318-9.486,17.598-3.39,3.63-8.479,5.401-12.434,5.774-.155-3.696.117-7.304.783-10.828Z" fill="#34004a" stroke="#fff" stroke-miterlimit="10"/>
  <path d="M23.157,130.726c3.497-6.678,11.674-13.196,19.479-16.663-1.977,7.981-3.69,14.327-7.02,19.239-2.803,4.137-7.546,6.861-11.42,8.047-.776-3.481-1.114-7.025-1.039-10.623Z" fill="#34004a" stroke="#fff" stroke-miterlimit="10"/>
  <path d="M28.15,157.559c1.402-6.96,7.044-14.605,13.144-19.287.301,7.925.413,14.251-1.297,19.507-1.44,4.425-4.986,7.857-8.153,9.673-1.601-3.164-2.825-6.466-3.694-9.893Z" fill="#34004a" stroke="#fff" stroke-miterlimit="10"/>
  <path d="M56.45,204.91c-2.842-5.282-2.805-12.258-.746-17.29,4.697,5.472,8.347,9.876,9.991,14.051,1.384,3.516.587,6.938-.828,9.119-3.015-1.761-5.818-3.725-8.417-5.88h0Z" fill="#34004a" stroke="#fff" stroke-miterlimit="10"/>
  <path d="M91.562,15.061l-10.511,4.226c1.905,3.604,5.864,5.733,9.853,6.289s8.037-.253,11.93-1.298c-3.347-5.89-6.309-7.43-11.272-9.217Z" fill="#34004a" stroke="#fff" stroke-miterlimit="10"/>
  <path d="M13.584,165.593c-.468.259-.688.832-.653,1.347.157,2.355,6.898,10.178,14.058,12.462-3.261-6.459-11.917-14.632-13.405-13.809Z" fill="#34004a" stroke="#fff" stroke-miterlimit="10"/>
  <path d="M68.712,229.717c.036.684.588,1.252,1.218,1.494,2.882,1.11,16.055-2.398,22.905-9.428-9.429-2.512-24.237,5.763-24.123,7.934h0Z" fill="#34004a" stroke="#fff" stroke-miterlimit="10"/>
  <path d="M59.207,224.4c-.021.684.456,1.296,1.033,1.59,2.64,1.346,15.398-1.053,22.454-7.487-8.726-3.289-23.419,3.723-23.487,5.897Z" fill="#34004a" stroke="#fff" stroke-miterlimit="10"/>
  <path d="M49.403,219.279c-.062.681.365,1.307.908,1.617,2.487,1.422,15.044-.582,22.297-6.784-8.291-3.543-23.008,3.002-23.205,5.167h0Z" fill="#34004a" stroke="#fff" stroke-miterlimit="10"/>
  <path d="M39.675,212.756c-.11.675.271,1.336.788,1.693,2.369,1.634,14.974.711,22.607-4.86-7.981-4.252-23.048,1.022-23.395,3.167Z" fill="#34004a" stroke="#fff" stroke-miterlimit="10"/>
  <path d="M32.373,205.726c-.152.667.142,1.344.584,1.726,2.025,1.748,13.548,1.469,20.917-3.69-6.919-4.639-21.019-.154-21.502,1.964h0Z" fill="#34004a" stroke="#fff" stroke-miterlimit="10"/>
  <path d="M24.97,198.271c-.208.612.025,1.288.431,1.701,1.855,1.891,13.289,2.995,21.028-1.005-6.455-5.204-20.8-2.639-21.46-.696h0Z" fill="#34004a" stroke="#fff" stroke-miterlimit="10"/>
  <path d="M18.939,191.118c-.248.601-.062,1.292.312,1.73,1.714,2.01,12.992,3.822,20.948.293-6.054-5.613-20.473-3.93-21.26-2.023Z" fill="#34004a" stroke="#fff" stroke-miterlimit="10"/>
  <path d="M14.615,183.733c-.104.49.108,1.065.422,1.44,1.445,1.723,10.565,4.049,18.078,1.383-6.288-5.812-18.163-4.416-18.5-2.823Z" fill="#34004a" stroke="#fff" stroke-miterlimit="10"/>
  <path d="M12.46,175.856c-.014.421.175.935.406,1.284,1.06,1.597,7.672,4.862,14.82,3.645-5.966-7.16-15.179-6.347-15.226-4.929Z" fill="#34004a" stroke="#fff" stroke-miterlimit="10"/>
  <path d="M132.292,8.101c4.529-3.188,10.363-4.392,15.756-3.253,5.394,1.139,10.272,4.606,13.176,9.363-4.874,2.068-10.204,2.675-15.371,1.561s-9.932-3.771-13.561-7.672h0Z" fill="#34004a" stroke="#fff" stroke-miterlimit="10"/>
  <path d="M164.024,15c-3.359-4.161-4.931-9.654-4.327-15.001,4.219,1.361,8.305,3.463,11.337,6.74,3.033,3.277,4.898,7.848,4.277,12.302-3.592-1.901-7.372-2.99-11.287-4.041Z" fill="#34004a" stroke="#fff" stroke-miterlimit="10"/>
  <path d="M182.564,22.51c-2.808-5.301-3.604-11.938-1.933-18.026,4.48,3.385,8.358,7.312,10.657,11.83,2.14,4.205,2.79,9.016,1.239,12.847-2.865-2.559-6.249-4.549-9.964-6.651h.001Z" fill="#34004a" stroke="#fff" stroke-miterlimit="10"/>
  <path d="M198.99,34.498c-2.216-6.207-2.238-13.925.437-20.785,4.318,5.444,7.8,10.052,9.259,15.419,1.277,4.697.859,10.318-1.183,13.587-2.227-2.854-5.142-5.388-8.513-8.221Z" fill="#34004a" stroke="#fff" stroke-miterlimit="10"/>
  <path d="M212.841,48.965c-1.028-7.373.557-16.728,5.112-24.746,3.099,8.725,5.267,15.242,5.228,21.436-.032,5.02-1.713,10.258-4.181,12.885-1.354-2.989-3.493-5.976-6.16-9.575h.001Z" fill="#34004a" stroke="#fff" stroke-miterlimit="10"/>
  <path d="M223.723,68.234c-.098-7.715,2.729-17.564,8.668-25.931,1.765,10.55,2.867,17.976,1.825,24.366-.813,4.985-3.184,9.741-5.861,11.805-.876-3.032-2.52-6.254-4.633-10.24h0Z" fill="#34004a" stroke="#fff" stroke-miterlimit="10"/>
  <path d="M231.485,87.243c2.271-6.93,7.933-14.839,14.907-19.348-.438,7.933-.508,15.107-2.921,20.473-2.047,4.552-6.294,7.905-9.916,9.563.018-3.435-1.092-6.335-2.07-10.689h0Z" fill="#34004a" stroke="#fff" stroke-miterlimit="10"/>
  <path d="M235.012,106.446c3.316-6.788,10.404-14.39,18.431-18.282-2.044,8.534-3.49,15.968-6.833,21.02-2.764,4.178-7.388,6.848-11.113,7.964.51-3.279-.152-6.244-.486-10.701h.001Z" fill="#34004a" stroke="#fff" stroke-miterlimit="10"/>
  <path d="M234.503,130.601c4.188-6.271,12.22-12.832,20.69-15.588-3.158,8.175-5.578,15.343-9.561,19.891-3.294,3.761-8.231,5.773-12.068,6.366,0,0,.036-4.994.939-10.669Z" fill="#34004a" stroke="#fff" stroke-miterlimit="10"/>
  <path d="M228.816,156.533c4.627-5.385,12.711-10.341,20.635-11.479-3.987,7.446-7.174,14.039-11.369,17.768-3.47,3.084-8.147,4.146-11.642,4.018,0,0,.753-4.9,2.376-10.308h0Z" fill="#34004a" stroke="#fff" stroke-miterlimit="10"/>
  <path d="M233.398,106.487c-4.362-5.806-13.1-10.58-21.137-12.544,2.949,7.359,5.489,13.318,9.485,17.598,3.39,3.63,8.479,5.401,12.435,5.774.155-3.696-.117-7.304-.783-10.828Z" fill="#34004a" stroke="#fff" stroke-miterlimit="10"/>
  <path d="M233.035,130.726c-3.497-6.678-11.674-13.196-19.48-16.663,1.977,7.981,3.691,14.327,7.02,19.239,2.804,4.137,7.546,6.861,11.42,8.047.776-3.481,1.114-7.025,1.039-10.623h0Z" fill="#34004a" stroke="#fff" stroke-miterlimit="10"/>
  <path d="M228.042,157.559c-1.402-6.96-7.044-14.605-13.144-19.287-.301,7.925-.413,14.251,1.297,19.507,1.44,4.425,4.986,7.857,8.153,9.673,1.601-3.164,2.825-6.466,3.694-9.893Z" fill="#34004a" stroke="#fff" stroke-miterlimit="10"/>
  <path d="M218.027,180.638c.243-6.37-3.096-13.464-7.467-17.873-1.945,7.209-3.384,12.965-2.995,17.791.328,4.063,2.718,7.272,5.117,9.002,2.079-2.843,3.855-5.819,5.345-8.919h0Z" fill="#34004a" stroke="#fff" stroke-miterlimit="10"/>
  <path d="M199.742,204.91c2.842-5.282,2.805-12.258.746-17.29-4.697,5.472-8.347,9.876-9.991,14.051-1.384,3.516-.587,6.938.827,9.119,3.016-1.761,5.818-3.725,8.418-5.88h0Z" fill="#34004a" stroke="#fff" stroke-miterlimit="10"/>
  <path d="M164.63,15.061l10.511,4.226c-1.905,3.604-5.864,5.733-9.853,6.289-3.988.556-8.037-.253-11.929-1.298,3.347-5.89,6.309-7.43,11.272-9.217h-.001Z" fill="#34004a" stroke="#fff" stroke-miterlimit="10"/>
  <path d="M242.607,165.593c.468.259.688.832.654,1.347-.157,2.355-6.898,10.178-14.058,12.462,3.26-6.459,11.917-14.632,13.404-13.809h0Z" fill="#34004a" stroke="#fff" stroke-miterlimit="10"/>
  <path d="M187.48,229.717c-.036.684-.588,1.252-1.218,1.494-2.882,1.11-16.055-2.398-22.905-9.428,9.428-2.512,24.237,5.763,24.123,7.934h0Z" fill="#34004a" stroke="#fff" stroke-miterlimit="10"/>
  <path d="M196.985,224.4c.021.684-.455,1.296-1.032,1.59-2.64,1.346-15.398-1.053-22.454-7.487,8.726-3.289,23.419,3.723,23.486,5.897h0Z" fill="#34004a" stroke="#fff" stroke-miterlimit="10"/>
  <path d="M206.789,219.279c.062.681-.365,1.307-.908,1.617-2.487,1.422-15.044-.582-22.297-6.784,8.291-3.543,23.008,3.002,23.205,5.167h0Z" fill="#34004a" stroke="#fff" stroke-miterlimit="10"/>
  <path d="M216.517,212.756c.109.675-.271,1.336-.788,1.693-2.369,1.634-14.974.711-22.607-4.86,7.981-4.252,23.048,1.022,23.395,3.167h0Z" fill="#34004a" stroke="#fff" stroke-miterlimit="10"/>
  <path d="M223.819,205.726c.152.667-.142,1.344-.584,1.726-2.025,1.748-13.548,1.469-20.917-3.69,6.919-4.639,21.019-.154,21.502,1.964h0Z" fill="#34004a" stroke="#fff" stroke-miterlimit="10"/>
  <path d="M231.222,198.271c.207.612-.025,1.288-.431,1.701-1.855,1.891-13.29,2.995-21.028-1.005,6.455-5.204,20.8-2.639,21.46-.696h0Z" fill="#34004a" stroke="#fff" stroke-miterlimit="10"/>
  <path d="M237.253,191.118c.248.601.062,1.292-.312,1.73-1.714,2.01-12.992,3.822-20.948.293,6.054-5.613,20.473-3.93,21.26-2.023Z" fill="#34004a" stroke="#fff" stroke-miterlimit="10"/>
  <path d="M241.577,183.733c.104.49-.108,1.065-.422,1.44-1.445,1.723-10.565,4.049-18.078,1.383,6.288-5.812,18.163-4.416,18.5-2.823Z" fill="#34004a" stroke="#fff" stroke-miterlimit="10"/>
  <path d="M243.732,175.856c.014.421-.175.935-.406,1.284-1.06,1.597-7.672,4.862-14.82,3.645,5.966-7.16,15.179-6.347,15.226-4.929h0Z" fill="#34004a" stroke="#fff" stroke-miterlimit="10"/>
  <g>
    <g>
      <path d="M234.49,99.87c1.24,7.54,1.49,15.26,1.31,22.62-.15,3.82-.58,7.45-.85,11.13-.53,3.62-1.06,7.21-1.69,10.72-1.5,6.96-3.23,13.65-5.59,19.75-2.14,6.18-4.99,11.68-7.72,16.67-2.85,4.92-5.75,9.27-8.63,12.88-1.83,2.41-3.67,4.49-5.38,6.29-3.63,2.62-7.6,5.25-11.92,7.63.06-.06.14-.12.23-.16,0,0,.9-.44,2.16-1.42,1.32-.98,3.27-2.65,5.56-4.9,2.25-2.31,4.97-5.16,7.67-8.79,2.79-3.55,5.58-7.84,8.33-12.68,2.62-4.92,5.35-10.33,7.47-16.38,2.31-5.97,4.01-12.53,5.49-19.37.62-3.44,1.14-6.97,1.66-10.53.27-3.58.7-7.27.84-10.86.19-7.47-.06-14.88-1.27-22.23-.12-.72-.23-1.43-.36-2.15.27.02.52.02.77.02-1.4-3.12-1.56-6.23-2.43-10.61-.29-.32-.6-.64-.92-.95-.73-2.66-1.62-5.25-2.57-7.8l-.09-.24c.3-.01.6-.04.9-.07-.92-3.31-1.46-7.86-4.17-9.91-.48-.36-.96-.7-1.46-1.04-1.39-2.79-2.87-5.5-4.38-8.13-.17-.27-.34-.53-.51-.79.31.02.63.03.95.04-1.71-3.32-3.81-6.69-6.49-9.31v-1.46c0-.81-.41-1.56-1.1-1.97-1.38-.83-2.77-1.64-4.18-2.42.22-.12.42-.25.61-.4-2.05-2.57-5.57-6.59-5.57-6.59-1.04-.38-2.11-.67-3.19-.86-1.78-1.68-3.58-3.24-5.39-4.65-.42-.35-.84-.68-1.26-1.01.31-.25.58-.52.82-.81-2.55-2.05-6.86-5.19-6.86-5.19-.96-.12-1.94-.17-2.91-.14-.77-.47-1.53-.91-2.27-1.34-1.98-1.05-3.85-2.03-5.57-2.94-1.79-.76-3.43-1.45-4.92-2.08-2.93-1.41-5.44-1.89-7.07-2.5-1.65-.53-2.53-.81-2.53-.81-.15-.04-.26-.2-.23-.36.04-.16.2-.25.35-.21,0,0,.91.22,2.6.64,1.67.51,4.26.84,7.3,2.08,1.54.57,3.24,1.2,5.1,1.89,1.77.88,3.69,1.83,5.74,2.84,4.01,2.18,8.47,4.85,12.93,8.33,4.51,3.4,9.11,7.51,13.43,12.37,4.39,4.81,8.41,10.4,12.21,16.41,3.53,6.17,6.94,12.72,9.41,19.8,1.31,3.51,2.5,7.09,3.34,10.79,1.08,3.64,1.69,7.4,2.3,11.16h0Z" fill="#34004a"/>
      <path d="M232.57,98.11c-.25,0-.5,0-.77-.02-.49-2.96-1.03-5.9-1.88-8.77-.21-.93-.45-1.85-.7-2.77.32.31.63.63.92.95.87,4.38,1.03,7.49,2.43,10.61h0Z" fill="#34004a"/>
      <path d="M231.15,176.93c.16.1.22.31.12.48,0,0-1.28,2.24-4.08,5.7-2.81,3.44-7.16,8.1-13,12.96-5.82,4.85-12.97,10.16-21.39,14.56-8.34,4.5-17.68,8.31-27.11,11.74-5.63,2.03-11.3,3.93-16.85,5.74-.26,0-.52-.01-.78-.01,4.2-1.78,8.39-3.87,12.49-6.23,1.48-.51,2.95-1.03,4.42-1.56,9.38-3.39,18.64-7.15,26.86-11.56.74-.38,1.46-.77,2.18-1.18-.3.29-.4.74-.21,1.14.23.48.79.68,1.26.47l.13-.06s.79-.36,2.32-1.5c1.51-1.09,3.47-2.75,5.87-5.06.8-.81,1.66-1.68,2.56-2.63,2.51-1.81,4.87-3.63,7.06-5.35,5.81-4.72,10.35-9.03,13.3-12.27,3-3.19,4.39-5.27,4.39-5.27.1-.15.3-.2.46-.11h0Z" fill="#34004a"/>
      <path d="M229.92,89.32c.85,2.87,1.39,5.81,1.88,8.77-3.85-.14-8.66-1.46-12.13-4.56-3.24-2.88-5.77-6.75-8.32-11.45v-4.67c6.8,1.49,13.49,4.83,17.87,9.14.25.92.49,1.84.7,2.77Z" fill="#34004a"/>
      <path d="M227.46,78.44c-.3.03-.6.06-.9.07-1.34-3.82-2.96-7.49-4.73-11.02.5.34.98.68,1.46,1.04,2.71,2.05,3.25,6.6,4.17,9.91h0Z" fill="#34004a"/>
      <path d="M226.56,78.51c-5.1.27-10.91-2.05-15.2-5.81.01-3.35.01-6.48.01-9.31,3.72.62,7.3,2.03,10.46,4.1,1.77,3.53,3.39,7.2,4.73,11.02Z" fill="#34004a"/>
      <path d="M217.89,58.61c-.32-.01-.64-.02-.95-.04-1.79-2.81-3.63-5.51-5.55-8.08.01-.45.01-.85.01-1.19,2.68,2.62,4.78,5.99,6.49,9.31Z" fill="#34004a"/>
      <path d="M216.94,58.57c-1.88-.11-3.75-.42-5.56-.94.01-3.02.01-5.45.01-7.14,1.92,2.57,3.76,5.27,5.55,8.08Z" fill="#34004a"/>
      <path d="M211.4,47.84v1.46c-.78-.77-1.6-1.47-2.48-2.08,0,.02,0,.05-.01.07-1.01-1.27-2.05-2.49-3.11-3.66.11-.05.22-.11.32-.18,1.41.78,2.8,1.59,4.18,2.42.69.41,1.1,1.16,1.1,1.97h0Z" fill="#34004a"/>
      <path d="M211.4,49.3c0,.34,0,.74-.01,1.19-.81-1.1-1.63-2.16-2.48-3.2.01-.02.01-.05.01-.07.88.61,1.7,1.31,2.48,2.08Z" fill="#34004a"/>
      <path d="M211.39,50.49c0,1.69,0,4.12-.01,7.14-.87-.24-1.73-.54-2.57-.88v-.53l.01-7.76c.03-.4.07-.79.09-1.17.85,1.04,1.67,2.1,2.48,3.2h0Z" fill="#34004a"/>
      <path d="M211.38,57.63c0,1.74,0,3.67-.01,5.76-.55-.1-1.1-.17-1.65-.23-.76,2.45-.82,4.74-.6,7.29.68.8,1.43,1.55,2.24,2.25,0,1.53,0,3.1-.01,4.71-.86-.2-1.72-.36-2.58-.48.02-7.99.03-15.03.04-20.18.84.34,1.7.64,2.57.88h0Z" fill="#34004a"/>
      <path d="M211.37,63.39c0,2.83,0,5.96-.01,9.31-.81-.7-1.56-1.45-2.24-2.25-.22-2.55-.16-4.84.6-7.29.55.06,1.1.13,1.65.23Z" fill="#34004a"/>
      <path d="M211.35,77.41v4.67c-.85-1.54-1.7-3.17-2.58-4.88.01-.09.01-.18,0-.27.86.12,1.72.28,2.58.48Z" fill="#34004a"/>
      <path d="M211.35,82.08c-.04,24.04-.08,54.41-.08,69,0,27.49-23.53,55.11-50.72,70.79-7.83,2.72-15.69,5.19-23.13,7.59-.01.01-.02.01-.03.01-2.01.5-3.67,1.05-4.95,1.49-.61.24-1.12.44-1.52.59-.02.01-.04.02-.06.02-.93.32-1.85.64-2.76.96-.93-.33-1.87-.66-2.83-.98-.4-.15-.91-.35-1.52-.59-1.27-.44-2.94-.98-4.94-1.49h-.01c-7.45-2.4-15.3-4.87-23.13-7.59-27.2-15.67-50.75-43.3-50.75-70.8,0-14.59-.04-44.95-.08-68.98.84-1.54,1.69-3.17,2.57-4.89.05,24.65.09,58.27.09,73.87,0,32.78,40.51,73.29,80.27,80.27l.33.06.33-.06c39.75-6.98,80.26-47.49,80.26-80.27,0-15.6.05-49.23.08-73.88.88,1.71,1.73,3.34,2.58,4.88h0Z" fill="#34004a"/>
      <path d="M208.91,47.29c-.02.38-.06.77-.09,1.17v-.44l-.96-.57c-1.67-.99-3.36-1.94-5.07-2.86,1.13-.19,2.15-.5,3.01-.96,1.06,1.17,2.1,2.39,3.11,3.66h0Z" fill="#34004a"/>
      <path d="M208.41,56.48c.02,0,.1.24.11.16.1.04.19.08.29.11-.01,5.15-.02,12.19-.04,20.18-.05-.02-.1-.02-.15-.03l.15.3c-.03,24.65-.08,58.28-.08,73.88,0,32.78-40.51,73.29-80.26,80.27l-.33.06-.33-.06c-39.76-6.98-80.27-47.49-80.27-80.27,0-15.6-.04-49.22-.09-73.87.05-.1.11-.21.16-.31-.05.01-.11.02-.16.03-.01-7.99-.02-15.03-.03-20.18.1-.03.2-.07.3-.11,0,.08.08-.16.1-.16.01-2.49-.21-5.44-.41-8.04v-.42l.96-.57c1.67-.99,3.36-1.94,5.07-2.86.64.12,1.32.19,2.02.22l8.76-5.46c19.68-8.62,41.46-13.12,63.92-13.12s44.24,4.5,63.91,13.12l8.76,5.46c.7-.03,1.38-.1,2.02-.22,1.71.92,3.4,1.87,5.07,2.86l.96.57v.44c-.2,2.6-.42,5.54-.41,8.02h0ZM206.75,148.12c.01-26.3.12-89.1.14-98.97-47.3-27.94-110.28-27.94-157.59,0,.02,9.87.13,72.67.14,98.97v2.96c0,32.08,39.62,71.48,78.66,78.33,39.04-6.85,78.65-46.25,78.65-78.33v-1.9h.01v-1.06h-.01Z" fill="#34004a"/>
      <path d="M208.82,48.46l-.01,7.76v.53c-.1-.03-.19-.07-.29-.11-.01.08-.09-.16-.11-.16-.01-2.48.21-5.42.41-8.02h0Z" fill="#34004a"/>
      <path d="M208.77,76.93c.01.09.01.18,0,.27l-.15-.3c.05.01.1.01.15.03Z" fill="#34004a"/>
      <path d="M206.89,49.15c-.02,9.87-.13,72.67-.14,98.97H49.44c-.01-26.3-.12-89.1-.14-98.97,47.31-27.94,110.29-27.94,157.59,0Z" fill="#34004a"/>
      <path d="M206.76,148.12v1.06h-.01v-1.06h.01Z" fill="#34004a"/>
      <path d="M206.75,148.12v1.06H49.44v-1.06h157.31Z" fill="#34004a"/>
      <path d="M206.75,149.18v1.9c0,32.08-39.61,71.48-78.65,78.33-39.04-6.85-78.66-46.25-78.66-78.33v-1.9h157.31Z" fill="#34004a"/>
      <path d="M206.73,43.05c-.19.15-.39.28-.61.4-.32-.19-.64-.37-.97-.54-2.39-2.6-4.77-5.07-7.18-7.31,1.08.19,2.15.48,3.19.86,0,0,3.52,4.02,5.57,6.59h0Z" fill="#34004a"/>
      <path d="M206.12,43.45c-.1.07-.21.13-.32.18-.09-.11-.19-.22-.29-.33l-.36-.39c.33.17.65.35.97.54Z" fill="#34004a"/>
      <path d="M205.51,43.3c.1.11.2.22.29.33-.86.46-1.88.77-3.01.96-3.51-1.89-7.11-3.64-10.78-5.24l-4.55-2.84c.86-.33,1.74-.6,2.64-.8,5.15,2.12,10.17,4.52,15.05,7.2l.36.39Z" fill="#34004a"/>
      <path d="M194.02,207.56c4.32-2.38,8.29-5.01,11.92-7.63-.9.95-1.76,1.82-2.56,2.63-2.4,2.31-4.36,3.97-5.87,5.06-1.53,1.14-2.32,1.5-2.32,1.5l-.13.06c-.47.21-1.03.01-1.26-.47-.19-.4-.09-.85.21-1.14,0,0,.01.01.01-.01Z" fill="#34004a"/>
      <path d="M202.79,44.59c-.64.12-1.32.19-2.02.22l-8.76-5.46c3.67,1.6,7.27,3.35,10.78,5.24Z" fill="#34004a"/>
      <path d="M197.97,35.6c2.41,2.24,4.79,4.71,7.18,7.31-4.88-2.68-9.9-5.08-15.05-7.2,2.58-.58,5.27-.6,7.87-.11h0Z" fill="#34004a"/>
      <path d="M187.46,36.51l4.55,2.84c-19.67-8.62-41.45-13.12-63.91-13.12s-44.24,4.5-63.92,13.12l4.55-2.84c-.86-.33-1.74-.6-2.63-.8,2.44-1.01,4.92-1.96,7.41-2.83.72.06,1.44.09,2.16.08,4.31-.05,8.08-.79,11.81-3.14-.29-.32-.6-.64-.91-.93,27.04-7.01,56.01-7.01,83.05,0-.31.29-.62.61-.91.93,3.73,2.35,7.5,3.09,11.82,3.14.71.01,1.43-.02,2.15-.08,2.5.87,4.97,1.82,7.42,2.83-.9.2-1.78.47-2.64.8h0Z" fill="#34004a"/>
      <path d="M192.14,29.13c-.24.29-.51.56-.82.81-3.04-2.4-6.08-4.41-8.95-6.14.97-.03,1.95.02,2.91.14,0,0,4.31,3.14,6.86,5.19Z" fill="#34004a"/>
      <path d="M191.32,29.94c-1.98,1.65-5.26,2.66-8.64,2.94-4.29-1.53-8.65-2.86-13.06-3.99,3.44-3.28,8.09-4.99,12.75-5.09,2.87,1.73,5.91,3.74,8.95,6.14Z" fill="#34004a"/>
      <path d="M182.68,32.88c-.72.06-1.44.09-2.15.08-4.32-.05-8.09-.79-11.82-3.14.29-.32.6-.64.91-.93,4.41,1.13,8.77,2.46,13.06,3.99Z" fill="#34004a"/>
      <path d="M164.47,237.53c.22,2.15-.34,4.62-2.17,6.05-1.72,1.32-4.08,1.44-5.82.77-1.86-.62-3.14-2.54-3.08-4.29-.07-1.71,1-3.46,2.54-3.82,1.43-.42,3.02.34,3.39,1.6.4,1.15.02,2.13-.42,2.66-.47.54-.89.64-.89.64l-.37.09c-.06.01-.13.02-.19.02-.45-.01-.8-.38-.79-.83.01-.46.37-.82.82-.81,0,0,.1,0,.27-.16.16-.13.42-.61.28-1.17-.1-.49-.87-.99-1.78-.75-.89.18-1.63,1.22-1.63,2.52-.05,1.31.9,2.51,2.32,2.95,1.43.42,3.09.29,4.32-.74,1.14-.96,1.55-2.79,1.28-4.49-.27-1.72-1.13-3.29-2.51-4.41-2.8-2.26-6.76-2.91-10.3-3.05-3.59-.14-6.97.32-9.81.87l-.3.06c1.72-.55,3.46-1.16,5.2-1.83,1.32-.43,2.66-.86,4.01-1.3.32.01.65.02.98.03,3.76.2,8.06.8,11.56,3.59,1.73,1.38,2.91,3.6,3.09,5.8h0Z" fill="#34004a"/>
      <path d="M163.31,254.36c.37.4.34,1.02-.05,1.39-.39.36-1.01.32-1.37-.07,0,0-1.63-1.81-4.96-4.62-3.32-2.79-8.35-6.48-14.9-10.01-4.09-2.25-8.79-4.25-13.93-6.12,1.08-.4,2.19-.79,3.31-1.18,4.25,1.62,8.19,3.38,11.64,5.35,13.4,7.36,20.26,15.26,20.26,15.26h0Z" fill="#34004a"/>
      <path d="M148.06,228.1c.26,0,.52.01.78.01-1.35.44-2.69.87-4.01,1.3,1.08-.41,2.16-.85,3.23-1.31Z" fill="#34004a"/>
      <path d="M160.55,221.87c-4.1,2.36-8.29,4.45-12.49,6.23-3.15.01-6.04.43-8.55.89-.73.15-1.43.31-2.09.47,7.44-2.4,15.3-4.87,23.13-7.59Z" fill="#34004a"/>
      <path d="M148.06,228.1c-1.07.46-2.15.9-3.23,1.31-2.24.73-4.44,1.44-6.61,2.14-2.51.57-4.5,1.2-5.81,1.67-.01-.01-.01,0-.02,0-.51.12-1.01.22-1.52.33-.56-.22-1.12-.42-1.69-.63.01-.42.26-.8.67-.95l.04-.02s.34-.13.97-.38c.02,0,.04-.01.06-.02,2.03-.68,4.1-1.34,6.2-1.99l.27-.09c.01,0,.02,0,.03-.01.66-.16,1.36-.32,2.09-.47,2.51-.46,5.4-.88,8.55-.89h0Z" fill="#34004a"/>
      <path d="M144.83,229.41c-1.74.67-3.48,1.28-5.2,1.83-.49.1-.96.2-1.41.31,2.17-.7,4.37-1.41,6.61-2.14Z" fill="#34004a"/>
      <path d="M138.22,231.55c.45-.11.92-.21,1.41-.31-1.64.53-3.27,1-4.89,1.41,1-.32,2.02-.64,3.04-.96.15-.05.29-.09.44-.14Z" fill="#34004a"/>
      <path d="M138.22,231.55c-.15.05-.29.09-.44.14-1.02.32-2.04.64-3.04.96-.78.2-1.56.39-2.33.57,1.31-.47,3.3-1.1,5.81-1.67h0Z" fill="#34004a"/>
      <path d="M137.39,229.47l-.27.09c-2.1.65-4.17,1.31-6.2,1.99.4-.15.91-.35,1.52-.59,1.28-.44,2.94-.99,4.95-1.49Z" fill="#34004a"/>
      <path d="M132.41,233.22c.77-.18,1.55-.37,2.33-.57-1.13.37-2.23.73-3.33,1.1-.07-.03-.14-.06-.22-.08.29-.12.69-.27,1.2-.45.01,0,.01-.01.02,0Z" fill="#34004a"/>
      <path d="M130.87,233.55c.51-.11,1.01-.21,1.52-.33-.51.18-.91.33-1.2.45-.1-.04-.21-.08-.32-.12Z" fill="#34004a"/>
      <path d="M131.19,233.67c.08.02.15.05.22.08-1.12.39-2.23.78-3.31,1.18-.01-.01-.01,0-.01,0-1.09-.4-2.2-.79-3.32-1.17.08-.04.16-.07.24-.09.37.14.56.23.56.23.01.01.03.02.04.02.33.13.7.07.97-.13.38.08.77.14,1.15.21.14.03.29.04.43.04.25,0,.48-.04.7-.11.25-.04.49-.09.74-.14.27.2.64.26.98.13.01,0,.03-.01.05-.02,0,0,.19-.09.56-.23Z" fill="#34004a"/>
      <path d="M130.87,233.55c.11.04.22.08.32.12-.37.14-.56.23-.56.23-.02.01-.04.02-.05.02-.34.13-.71.07-.98-.13.42-.07.85-.16,1.27-.24h0Z" fill="#34004a"/>
      <path d="M130.86,231.57c-.63.25-.97.38-.97.38l-.04.02c-.41.15-.66.53-.67.95l-1.08-.39c.91-.32,1.83-.64,2.76-.96Z" fill="#34004a"/>
      <path d="M130.87,233.55c-.42.08-.85.17-1.27.24-.16-.11-.28-.27-.35-.47-.05-.13-.07-.27-.07-.4.57.21,1.13.41,1.69.63h0Z" fill="#34004a"/>
      <path d="M129.6,233.79c-.25.05-.49.1-.74.14-.22.07-.45.11-.7.11-.14,0-.29-.01-.43-.04-.38-.07-.77-.13-1.15-.21.16-.11.29-.27.36-.47.05-.13.07-.26.07-.39.36-.14.72-.27,1.09-.4l1.08.39c0,.13.02.27.07.4.07.2.19.36.35.47h0Z" fill="#34004a"/>
      <path d="M128.1,232.53c-.37.13-.73.26-1.09.4-.01-.42-.26-.81-.66-.96l-.05-.02s-.36-.14-1.03-.4c.96.32,1.9.65,2.83.98h0Z" fill="#34004a"/>
      <path d="M127.01,232.93c0,.13-.02.26-.07.39-.07.2-.2.36-.36.47-.42-.07-.83-.16-1.25-.24.56-.22,1.12-.42,1.68-.62Z" fill="#34004a"/>
      <path d="M128.09,234.93c-5.14,1.87-9.84,3.87-13.93,6.12-6.55,3.53-11.57,7.22-14.9,10.01-3.33,2.81-4.96,4.62-4.96,4.62-.36.39-.98.43-1.37.07-.39-.37-.42-.99-.05-1.39,0,0,6.86-7.9,20.26-15.26,3.45-1.97,7.38-3.72,11.63-5.34,1.12.38,2.23.77,3.32,1.17Z" fill="#34004a"/>
      <path d="M126.35,231.97c.4.15.65.54.66.96-.56.2-1.12.4-1.68.62-.52-.11-1.04-.22-1.57-.34-1.32-.47-3.31-1.1-5.81-1.67-2.09-.67-4.21-1.36-6.36-2.05-.03-.01-.06-.02-.09-.04-1.12-.42-2.24-.87-3.35-1.35,3.14.02,6.03.43,8.53.89.74.15,1.45.31,2.12.48h.01l.27.09c2.1.65,4.17,1.31,6.19,1.99.67.26,1.03.4,1.03.4l.05.02h0Z" fill="#34004a"/>
      <path d="M126.58,233.79c-.27.2-.64.26-.97.13-.01,0-.03-.01-.04-.02,0,0-.19-.09-.56-.23.11-.05.21-.09.32-.12.42.08.83.17,1.25.24h0Z" fill="#34004a"/>
      <path d="M125.33,233.55c-.11.03-.21.07-.32.12-.3-.12-.72-.28-1.25-.46.53.12,1.05.23,1.57.34h0Z" fill="#34004a"/>
      <path d="M125.01,233.67c-.08.02-.16.05-.24.09-1.13-.39-2.27-.77-3.43-1.14.81.21,1.62.41,2.42.59.53.18.95.34,1.25.46Z" fill="#34004a"/>
      <path d="M123.75,230.96c.61.24,1.12.44,1.52.59-2.02-.68-4.09-1.34-6.19-1.99l-.27-.09c2,.51,3.67,1.05,4.94,1.49Z" fill="#34004a"/>
      <path d="M117.95,231.54c2.5.57,4.49,1.2,5.81,1.67-.8-.18-1.61-.38-2.42-.59-.97-.32-1.94-.62-2.93-.93-.15-.05-.3-.1-.46-.15h0Z" fill="#34004a"/>
      <path d="M118.41,231.69c.99.31,1.96.61,2.93.93-1.56-.4-3.13-.85-4.7-1.36.45.09.89.18,1.31.28.16.05.31.1.46.15h0Z" fill="#34004a"/>
      <path d="M118.8,229.47c-.67-.17-1.38-.33-2.12-.48-2.5-.46-5.39-.87-8.53-.89-4.2-1.77-8.38-3.86-12.48-6.22,7.83,2.72,15.68,5.19,23.13,7.59Z" fill="#34004a"/>
      <path d="M117.95,231.54c-.42-.1-.86-.19-1.31-.28-1.68-.53-3.37-1.12-5.05-1.77,2.15.69,4.27,1.38,6.36,2.05Z" fill="#34004a"/>
      <path d="M116.64,231.26c-.12-.03-.25-.06-.37-.08-2.85-.55-6.23-1.01-9.82-.87-3.54.14-7.5.79-10.3,3.05-1.38,1.12-2.24,2.69-2.51,4.41-.26,1.7.14,3.53,1.29,4.49,1.22,1.03,2.89,1.16,4.32.74,1.41-.44,2.36-1.64,2.32-2.95-.01-1.3-.75-2.34-1.64-2.52-.91-.24-1.68.26-1.78.75-.14.56.12,1.04.28,1.17.17.16.27.16.27.16.45-.01.82.35.82.81.01.45-.34.82-.79.83-.06,0-.13-.01-.19-.02l-.37-.09s-.42-.1-.88-.64c-.45-.53-.83-1.51-.43-2.66.37-1.26,1.96-2.02,3.4-1.6,1.53.36,2.6,2.11,2.54,3.82.05,1.75-1.23,3.67-3.09,4.29-1.74.67-4.1.55-5.82-.77-1.83-1.43-2.39-3.9-2.16-6.05.17-2.2,1.35-4.42,3.09-5.8,3.49-2.79,7.79-3.39,11.55-3.59.33-.01.66-.02.98-.03,1.39.45,2.78.9,4.15,1.34.03.02.06.03.09.04,1.68.65,3.37,1.24,5.05,1.77Z" fill="#34004a"/>
      <path d="M108.15,228.1c1.11.48,2.23.93,3.35,1.35-1.37-.44-2.76-.89-4.15-1.34.27,0,.54-.01.8-.01h0Z" fill="#34004a"/>
      <path d="M108.15,228.1c-.26,0-.53.01-.8.01-5.55-1.81-11.22-3.71-16.85-5.74-9.43-3.43-18.77-7.24-27.11-11.74-8.42-4.4-15.57-9.71-21.39-14.56-5.84-4.86-10.19-9.52-13-12.96-2.8-3.46-4.08-5.7-4.08-5.7-.09-.17-.04-.38.12-.48.16-.09.36-.04.46.11,0,0,1.39,2.08,4.39,5.27,2.95,3.24,7.49,7.55,13.3,12.27,2.19,1.72,4.55,3.54,7.06,5.35.9.95,1.76,1.82,2.56,2.63,2.4,2.31,4.36,3.97,5.87,5.06,1.53,1.14,2.33,1.5,2.33,1.5l.12.06c.47.21,1.03.01,1.26-.47.19-.4.09-.85-.21-1.14.72.41,1.44.8,2.18,1.18,8.23,4.41,17.48,8.17,26.86,11.56,1.48.53,2.96,1.06,4.45,1.57,4.1,2.36,8.28,4.45,12.48,6.22Z" fill="#34004a"/>
      <path d="M96.41,13.77c.04.16-.08.32-.22.36,0,0-.89.28-2.54.81-1.63.61-4.14,1.09-7.07,2.5-1.48.63-3.13,1.32-4.92,2.08-1.72.91-3.58,1.89-5.57,2.94-.74.43-1.5.87-2.27,1.34-.97-.03-1.95.02-2.91.14,0,0-4.3,3.14-6.86,5.19.24.29.51.56.82.81-.42.33-.84.66-1.26,1.01-1.81,1.41-3.61,2.97-5.39,4.65-1.08.19-2.15.48-3.19.86,0,0-3.52,4.02-5.57,6.59.19.15.39.28.61.4-1.41.78-2.8,1.59-4.18,2.42-.68.41-1.1,1.16-1.1,1.97v1.46c-2.68,2.62-4.78,5.99-6.49,9.31.32-.01.64-.02.95-.04-.17.26-.34.52-.51.79-1.5,2.64-2.99,5.35-4.38,8.14-.5.33-.98.67-1.46,1.03-2.71,2.05-3.24,6.6-4.16,9.91.29.03.59.06.89.07l-.09.24c-.95,2.54-1.83,5.12-2.55,7.77-.32.32-.64.65-.94.98-.87,4.38-1.03,7.49-2.43,10.61.25,0,.5,0,.77-.02-.13.72-.24,1.43-.36,2.15-1.2,7.35-1.45,14.76-1.27,22.23.14,3.59.58,7.28.84,10.86.53,3.56,1.04,7.09,1.67,10.53,1.47,6.84,3.17,13.4,5.48,19.37,2.12,6.01,4.81,11.39,7.42,16.28-.03.38-.02.76-.01,1.13,1.49,3.1,3.27,6.07,5.35,8.92.22-.16.43-.32.65-.5.79,1.13,1.59,2.21,2.39,3.23,2.7,3.63,5.42,6.48,7.67,8.79,2.29,2.25,4.24,3.92,5.57,4.9,1.25.98,2.15,1.42,2.15,1.42.09.04.17.1.23.16-4.32-2.38-8.29-5.01-11.92-7.63-1.71-1.8-3.55-3.88-5.38-6.29-2.88-3.61-5.78-7.96-8.63-12.88-2.73-4.99-5.58-10.49-7.72-16.67-2.36-6.1-4.09-12.79-5.59-19.75-.63-3.51-1.15-7.1-1.68-10.72-.28-3.68-.71-7.31-.86-11.13-.18-7.36.07-15.08,1.31-22.62.62-3.76,1.22-7.52,2.3-11.16.84-3.7,2.03-7.28,3.34-10.79,2.47-7.08,5.88-13.63,9.41-19.8,3.8-6.01,7.83-11.6,12.21-16.41,4.32-4.86,8.92-8.97,13.43-12.37,4.46-3.48,8.92-6.15,12.93-8.33,2.05-1.01,3.97-1.96,5.75-2.84,1.85-.69,3.55-1.32,5.09-1.89,3.04-1.24,5.63-1.57,7.3-2.08,1.69-.42,2.6-.64,2.6-.64.15-.04.31.05.35.21h0Z" fill="#34004a"/>
      <path d="M86.57,28.89c.31.29.62.61.91.93-3.73,2.35-7.5,3.09-11.81,3.14-.72.01-1.44-.02-2.16-.08,4.29-1.52,8.65-2.85,13.06-3.99Z" fill="#34004a"/>
      <path d="M86.57,28.89c-4.41,1.14-8.77,2.47-13.06,3.99-3.38-.28-6.66-1.29-8.64-2.94,3.04-2.4,6.08-4.41,8.95-6.14,4.66.1,9.31,1.81,12.75,5.09Z" fill="#34004a"/>
      <path d="M70.91,23.94c.96-.12,1.94-.17,2.91-.14-2.87,1.73-5.91,3.74-8.95,6.14-.31-.25-.58-.52-.82-.81,2.56-2.05,6.86-5.19,6.86-5.19Z" fill="#34004a"/>
      <path d="M68.73,36.51l-4.55,2.84c-3.67,1.6-7.27,3.35-10.78,5.24-1.13-.19-2.15-.5-3.01-.96.09-.11.19-.22.29-.33l.36-.39c4.88-2.68,9.91-5.08,15.06-7.2.89.2,1.77.47,2.63.8Z" fill="#34004a"/>
      <path d="M64.18,39.35l-8.76,5.46c-.7-.03-1.38-.1-2.02-.22,3.51-1.89,7.11-3.64,10.78-5.24Z" fill="#34004a"/>
      <path d="M58.22,35.6c2.6-.49,5.3-.47,7.88.11-5.15,2.12-10.18,4.52-15.06,7.2,2.39-2.6,4.77-5.07,7.18-7.31Z" fill="#34004a"/>
      <path d="M62.18,207.57c.3.29.4.74.21,1.14-.23.48-.79.68-1.26.47l-.12-.06s-.8-.36-2.33-1.5c-1.51-1.09-3.47-2.75-5.87-5.06-.8-.81-1.66-1.68-2.56-2.63,3.63,2.62,7.6,5.25,11.92,7.63,0,.02.01.01.01.01Z" fill="#34004a"/>
      <path d="M55.03,36.46c1.04-.38,2.11-.67,3.19-.86-2.41,2.24-4.79,4.71-7.18,7.31-.33.17-.65.35-.97.54-.22-.12-.42-.25-.61-.4,2.05-2.57,5.57-6.59,5.57-6.59Z" fill="#34004a"/>
      <path d="M51.04,42.91l-.36.39c-.1.11-.2.22-.29.33-.11-.05-.22-.11-.32-.18.32-.19.64-.37.97-.54Z" fill="#34004a"/>
      <path d="M50.39,43.63c.86.46,1.88.77,3.01.96-1.71.92-3.4,1.87-5.07,2.86l-.96.57v.42c-.03-.4-.06-.78-.09-1.15,1.01-1.27,2.05-2.49,3.11-3.66Z" fill="#34004a"/>
      <path d="M50.07,43.45c.1.07.21.13.32.18-1.06,1.17-2.1,2.39-3.11,3.66-.01-.02-.01-.05-.01-.07-.88.61-1.71,1.31-2.48,2.08v-1.46c0-.81.42-1.56,1.1-1.97,1.38-.83,2.77-1.64,4.18-2.42Z" fill="#34004a"/>
      <path d="M45.63,162.76c1.95,7.21,3.39,12.97,3,17.8-.3,3.69-2.31,6.68-4.47,8.5-1.99-2.82-3.98-6-5.94-9.45-.02-.03-.04-.07-.05-.1.15-6.07,3.35-12.6,7.46-16.75Z" fill="#34004a"/>
      <path d="M47.37,48.44c.2,2.6.42,5.55.41,8.04-.02,0-.1.24-.1.16-.1.04-.2.08-.3.11v-.31s-.01-8-.01-8Z" fill="#34004a"/>
      <path d="M47.57,76.9c-.05.1-.11.21-.16.31.01-.09.01-.19,0-.28.05-.01.11-.02.16-.03Z" fill="#34004a"/>
      <path d="M47.41,76.93c.01.09.01.19,0,.28-.88,1.72-1.73,3.35-2.57,4.89,0-1.59,0-3.16-.01-4.69.86-.2,1.72-.36,2.58-.48Z" fill="#34004a"/>
      <path d="M47.38,56.75c.01,5.15.02,12.19.03,20.18-.86.12-1.72.28-2.58.48.01-1.61,0-3.18,0-4.71.81-.7,1.56-1.45,2.24-2.25.22-2.55.16-4.84-.6-7.29-.56.06-1.11.14-1.66.23,0-2.09,0-4.02-.01-5.76.87-.24,1.74-.53,2.58-.88Z" fill="#34004a"/>
      <path d="M47.38,56.44v.31c-.84.35-1.71.64-2.58.88,0-3.01,0-5.44-.01-7.13.82-1.1,1.65-2.17,2.49-3.21.03.37.06.75.09,1.15,0,0,.01,8,.01,8Z" fill="#34004a"/>
      <path d="M47.27,47.22c0,.02,0,.05.01.07-.84,1.04-1.67,2.11-2.49,3.21v-1.2c.77-.77,1.6-1.47,2.48-2.08Z" fill="#34004a"/>
      <path d="M46.47,63.16c.76,2.45.82,4.74.6,7.29-.68.8-1.43,1.55-2.24,2.25,0-3.35-.01-6.48-.02-9.31.55-.09,1.1-.17,1.66-.23Z" fill="#34004a"/>
      <path d="M44.83,77.41c.01,1.53.01,3.1.01,4.69-2.55,4.69-5.08,8.56-8.31,11.43-3.48,3.1-8.29,4.42-12.14,4.56.49-2.96,1.04-5.9,1.89-8.77.21-.94.45-1.87.71-2.8,4.39-4.3,11.06-7.62,17.84-9.11Z" fill="#34004a"/>
      <path d="M44.81,63.39c.01,2.83.02,5.96.02,9.31-4.29,3.76-10.11,6.09-15.2,5.81,1.34-3.82,2.96-7.48,4.73-11.01,3.16-2.07,6.74-3.49,10.45-4.11Z" fill="#34004a"/>
      <path d="M44.79,50.5c.01,1.69.01,4.12.01,7.13-1.81.52-3.67.83-5.55.94,1.79-2.8,3.63-5.51,5.54-8.07Z" fill="#34004a"/>
      <path d="M44.79,49.3v1.2c-1.91,2.56-3.75,5.27-5.54,8.07-.31.02-.63.03-.95.04,1.71-3.32,3.81-6.69,6.49-9.31Z" fill="#34004a"/>
      <path d="M44.16,189.06c-.22.18-.43.34-.65.5-2.08-2.85-3.86-5.82-5.35-8.92-.01-.37-.02-.75.01-1.13.01.03.03.07.05.1,1.96,3.45,3.95,6.63,5.94,9.45Z" fill="#34004a"/>
      <path d="M34.36,67.5c-1.77,3.53-3.39,7.19-4.73,11.01-.3-.01-.6-.04-.89-.07.92-3.31,1.45-7.86,4.16-9.91.48-.36.96-.7,1.46-1.03Z" fill="#34004a"/>
      <path d="M26.99,86.52c-.26.93-.5,1.86-.71,2.8-.85,2.87-1.4,5.81-1.89,8.77-.27.02-.52.02-.77.02,1.4-3.12,1.56-6.23,2.43-10.61.3-.33.62-.66.94-.98Z" fill="#34004a"/>
    </g>
    <g>
      <path d="M34.36,67.5c3.16-2.07,6.74-3.49,10.45-4.11" fill="none" stroke="#fff" stroke-miterlimit="10"/>
      <path d="M44.83,72.7c-4.29,3.76-10.11,6.09-15.2,5.81" fill="none" stroke="#fff" stroke-miterlimit="10"/>
      <path d="M44.84,82.1c-2.55,4.69-5.08,8.56-8.31,11.43-3.48,3.1-8.29,4.42-12.14,4.56" fill="none" stroke="#fff" stroke-miterlimit="10"/>
      <path d="M26.99,86.52c4.39-4.3,11.06-7.62,17.84-9.11" fill="none" stroke="#fff" stroke-miterlimit="10"/>
      <path d="M38.17,179.51c.15-6.07,3.35-12.6,7.46-16.75,1.95,7.21,3.39,12.97,3,17.8-.3,3.69-2.31,6.68-4.47,8.5" fill="none" stroke="#fff" stroke-miterlimit="10"/>
      <path d="M73.51,32.88c-3.38-.28-6.66-1.29-8.64-2.94" fill="none" stroke="#fff" stroke-miterlimit="10"/>
      <path d="M73.82,23.8c4.66.1,9.31,1.81,12.75,5.09" fill="none" stroke="#fff" stroke-miterlimit="10"/>
      <path d="M58.22,35.6c2.6-.49,5.3-.47,7.88.11" fill="none" stroke="#fff" stroke-miterlimit="10"/>
      <path d="M44.8,57.63c-1.81.52-3.67.83-5.55.94" fill="none" stroke="#fff" stroke-miterlimit="10"/>
      <path d="M44.79,50.5c-1.91,2.56-3.75,5.27-5.54,8.07-.17.26-.34.52-.51.79-1.5,2.64-2.99,5.35-4.38,8.14-1.77,3.53-3.39,7.19-4.73,11.01l-.09.24c-.95,2.54-1.83,5.12-2.55,7.77-.26.93-.5,1.86-.71,2.8-.85,2.87-1.4,5.81-1.89,8.77-.13.72-.24,1.43-.36,2.15-1.2,7.35-1.45,14.76-1.27,22.23.14,3.59.58,7.28.84,10.86.53,3.56,1.04,7.09,1.67,10.53,1.47,6.84,3.17,13.4,5.48,19.37,2.12,6.01,4.81,11.39,7.42,16.28.01.03.03.07.05.1,1.96,3.45,3.95,6.63,5.94,9.45.79,1.13,1.59,2.21,2.39,3.23,2.7,3.63,5.42,6.48,7.67,8.79,2.29,2.25,4.24,3.92,5.57,4.9,1.25.98,2.15,1.42,2.15,1.42.09.04.17.1.23.16" fill="none" stroke="#fff" stroke-miterlimit="10"/>
      <path d="M50.25,199.93c-1.71-1.8-3.55-3.88-5.38-6.29-2.88-3.61-5.78-7.96-8.63-12.88-2.73-4.99-5.58-10.49-7.72-16.67-2.36-6.1-4.09-12.79-5.59-19.75-.63-3.51-1.15-7.1-1.68-10.72-.28-3.68-.71-7.31-.86-11.13-.18-7.36.07-15.08,1.31-22.62.62-3.76,1.22-7.52,2.3-11.16.84-3.7,2.03-7.28,3.34-10.79,2.47-7.08,5.88-13.63,9.41-19.8,3.8-6.01,7.83-11.6,12.21-16.41,4.32-4.86,8.92-8.97,13.43-12.37,4.46-3.48,8.92-6.15,12.93-8.33,2.05-1.01,3.97-1.96,5.75-2.84,1.85-.69,3.55-1.32,5.09-1.89,3.04-1.24,5.63-1.57,7.3-2.08,1.69-.42,2.6-.64,2.6-.64.15-.04.31.05.35.21s-.08.32-.22.36c0,0-.89.28-2.54.81-1.63.61-4.14,1.09-7.07,2.5-1.48.63-3.13,1.32-4.92,2.08-1.72.91-3.58,1.89-5.57,2.94-.74.43-1.5.87-2.27,1.34-2.87,1.73-5.91,3.74-8.95,6.14-.42.33-.84.66-1.26,1.01-1.81,1.41-3.61,2.97-5.39,4.65-2.41,2.24-4.79,4.71-7.18,7.31l-.36.39c-.1.11-.2.22-.29.33" fill="none" stroke="#fff" stroke-miterlimit="10"/>
      <path d="M116.64,231.26c-.12-.03-.25-.06-.37-.08-2.85-.55-6.23-1.01-9.82-.87-3.54.14-7.5.79-10.3,3.05-1.38,1.12-2.24,2.69-2.51,4.41-.26,1.7.14,3.53,1.29,4.49,1.22,1.03,2.89,1.16,4.32.74,1.41-.44,2.36-1.64,2.32-2.95-.01-1.3-.75-2.34-1.64-2.52-.91-.24-1.68.26-1.78.75-.14.56.12,1.04.28,1.17.17.16.27.16.27.16.45-.01.82.35.82.81.01.45-.34.82-.79.83-.06,0-.13-.01-.19-.02l-.37-.09s-.42-.1-.88-.64c-.45-.53-.83-1.51-.43-2.66.37-1.26,1.96-2.02,3.4-1.6,1.53.36,2.6,2.11,2.54,3.82.05,1.75-1.23,3.67-3.09,4.29-1.74.67-4.1.55-5.82-.77-1.83-1.43-2.39-3.9-2.16-6.05.17-2.2,1.35-4.42,3.09-5.8,3.49-2.79,7.79-3.39,11.55-3.59.33-.01.66-.02.98-.03" fill="none" stroke="#fff" stroke-miterlimit="10"/>
      <path d="M111.5,229.45c-1.37-.44-2.76-.89-4.15-1.34-5.55-1.81-11.22-3.71-16.85-5.74-9.43-3.43-18.77-7.24-27.11-11.74-8.42-4.4-15.57-9.71-21.39-14.56-5.84-4.86-10.19-9.52-13-12.96-2.8-3.46-4.08-5.7-4.08-5.7-.09-.17-.04-.38.12-.48.16-.09.36-.04.46.11,0,0,1.39,2.08,4.39,5.27,2.95,3.24,7.49,7.55,13.3,12.27,2.19,1.72,4.55,3.54,7.06,5.35,3.63,2.62,7.6,5.25,11.92,7.63,0,.02.01.01.01.01.72.41,1.44.8,2.18,1.18,8.23,4.41,17.48,8.17,26.86,11.56,1.48.53,2.96,1.06,4.45,1.57" fill="none" stroke="#fff" stroke-miterlimit="10"/>
      <path d="M124.77,233.76c-1.13-.39-2.27-.77-3.43-1.14" fill="none" stroke="#fff" stroke-miterlimit="10"/>
      <path d="M131.41,233.75c4.25,1.62,8.19,3.38,11.64,5.35,13.4,7.36,20.26,15.26,20.26,15.26.37.4.34,1.02-.05,1.39-.39.36-1.01.32-1.37-.07,0,0-1.63-1.81-4.96-4.62-3.32-2.79-8.35-6.48-14.9-10.01-4.09-2.25-8.79-4.25-13.93-6.12" fill="none" stroke="#fff" stroke-miterlimit="10"/>
      <path d="M221.83,67.49c-3.16-2.07-6.74-3.48-10.46-4.1" fill="none" stroke="#fff" stroke-miterlimit="10"/>
      <path d="M211.36,72.7c4.29,3.76,10.1,6.08,15.2,5.81" fill="none" stroke="#fff" stroke-miterlimit="10"/>
      <path d="M211.35,82.08c2.55,4.7,5.08,8.57,8.32,11.45,3.47,3.1,8.28,4.42,12.13,4.56" fill="none" stroke="#fff" stroke-miterlimit="10"/>
      <path d="M229.22,86.55c-4.38-4.31-11.07-7.65-17.87-9.14" fill="none" stroke="#fff" stroke-miterlimit="10"/>
      <path d="M182.68,32.88c3.38-.28,6.66-1.29,8.64-2.94" fill="none" stroke="#fff" stroke-miterlimit="10"/>
      <path d="M182.37,23.8c-4.66.1-9.31,1.81-12.75,5.09" fill="none" stroke="#fff" stroke-miterlimit="10"/>
      <path d="M197.97,35.6c-2.6-.49-5.29-.47-7.87.11" fill="none" stroke="#fff" stroke-miterlimit="10"/>
      <path d="M211.38,57.63c1.81.52,3.68.83,5.56.94" fill="none" stroke="#fff" stroke-miterlimit="10"/>
      <path d="M211.39,50.49c1.92,2.57,3.76,5.27,5.55,8.08.17.26.34.52.51.79,1.51,2.63,2.99,5.34,4.38,8.13,1.77,3.53,3.39,7.2,4.73,11.02l.09.24c.95,2.55,1.84,5.14,2.57,7.8.25.92.49,1.84.7,2.77.85,2.87,1.39,5.81,1.88,8.77.13.72.24,1.43.36,2.15,1.21,7.35,1.46,14.76,1.27,22.23-.14,3.59-.57,7.28-.84,10.86-.52,3.56-1.04,7.09-1.66,10.53-1.48,6.84-3.18,13.4-5.49,19.37-2.12,6.05-4.85,11.46-7.47,16.38-2.75,4.84-5.54,9.13-8.33,12.68-2.7,3.63-5.42,6.48-7.67,8.79-2.29,2.25-4.24,3.92-5.56,4.9-1.26.98-2.16,1.42-2.16,1.42-.09.04-.17.1-.23.16" fill="none" stroke="#fff" stroke-miterlimit="10"/>
      <path d="M205.94,199.93c1.71-1.8,3.55-3.88,5.38-6.29,2.88-3.61,5.78-7.96,8.63-12.88,2.73-4.99,5.58-10.49,7.72-16.67,2.36-6.1,4.09-12.79,5.59-19.75.63-3.51,1.16-7.1,1.69-10.72.27-3.68.7-7.31.85-11.13.18-7.36-.07-15.08-1.31-22.62-.61-3.76-1.22-7.52-2.3-11.16-.84-3.7-2.03-7.28-3.34-10.79-2.47-7.08-5.88-13.63-9.41-19.8-3.8-6.01-7.82-11.6-12.21-16.41-4.32-4.86-8.92-8.97-13.43-12.37-4.46-3.48-8.92-6.15-12.93-8.33-2.05-1.01-3.97-1.96-5.74-2.84-1.86-.69-3.56-1.32-5.1-1.89-3.04-1.24-5.63-1.57-7.3-2.08-1.69-.42-2.6-.64-2.6-.64-.15-.04-.31.05-.35.21-.03.16.08.32.23.36,0,0,.88.28,2.53.81,1.63.61,4.14,1.09,7.07,2.5,1.49.63,3.13,1.32,4.92,2.08,1.72.91,3.59,1.89,5.57,2.94.74.43,1.5.87,2.27,1.34,2.87,1.73,5.91,3.74,8.95,6.14.42.33.84.66,1.26,1.01,1.81,1.41,3.61,2.97,5.39,4.65,2.41,2.24,4.79,4.71,7.18,7.31l.36.39c.1.11.2.22.29.33" fill="none" stroke="#fff" stroke-miterlimit="10"/>
      <path d="M139.63,231.24l.3-.06c2.84-.55,6.22-1.01,9.81-.87,3.54.14,7.5.79,10.3,3.05,1.38,1.12,2.24,2.69,2.51,4.41.27,1.7-.14,3.53-1.28,4.49-1.23,1.03-2.89,1.16-4.32.74-1.42-.44-2.37-1.64-2.32-2.95,0-1.3.74-2.34,1.63-2.52.91-.24,1.68.26,1.78.75.14.56-.12,1.04-.28,1.17-.17.16-.27.16-.27.16-.45-.01-.81.35-.82.81-.01.45.34.82.79.83.06,0,.13-.01.19-.02l.37-.09s.42-.1.89-.64c.44-.53.82-1.51.42-2.66-.37-1.26-1.96-2.02-3.39-1.6-1.54.36-2.61,2.11-2.54,3.82-.06,1.75,1.22,3.67,3.08,4.29,1.74.67,4.1.55,5.82-.77,1.83-1.43,2.39-3.9,2.17-6.05-.18-2.2-1.36-4.42-3.09-5.8-3.5-2.79-7.8-3.39-11.56-3.59-.33-.01-.66-.02-.98-.03" fill="none" stroke="#fff" stroke-miterlimit="10"/>
      <path d="M125.01,233.67c-.08.02-.16.05-.24.09-4.25,1.62-8.18,3.37-11.63,5.34-13.4,7.36-20.26,15.26-20.26,15.26-.37.4-.34,1.02.05,1.39.39.36,1.01.32,1.37-.07,0,0,1.63-1.81,4.96-4.62,3.33-2.79,8.35-6.48,14.9-10.01,4.09-2.25,8.79-4.25,13.93-6.12" fill="none" stroke="#fff" stroke-miterlimit="10"/>
      <path d="M134.74,232.65c1-.32,2.02-.64,3.04-.96.15-.05.29-.09.44-.14,2.17-.7,4.37-1.41,6.61-2.14,1.32-.43,2.66-.86,4.01-1.3,5.55-1.81,11.22-3.71,16.85-5.74,9.43-3.43,18.77-7.24,27.11-11.74,8.42-4.4,15.57-9.71,21.39-14.56,5.84-4.86,10.19-9.52,13-12.96,2.8-3.46,4.08-5.7,4.08-5.7.1-.17.04-.38-.12-.48-.16-.09-.36-.04-.46.11,0,0-1.39,2.08-4.39,5.27-2.95,3.24-7.49,7.55-13.3,12.27-2.19,1.72-4.55,3.54-7.06,5.35-3.63,2.62-7.6,5.25-11.92,7.63,0,.02-.01.01-.01.01-.72.41-1.44.8-2.18,1.18-8.22,4.41-17.48,8.17-26.86,11.56-1.47.53-2.94,1.05-4.42,1.56" fill="none" stroke="#fff" stroke-miterlimit="10"/>
      <path d="M128.1,234.93c1.08-.4,2.19-.79,3.31-1.18" fill="none" stroke="#fff" stroke-miterlimit="10"/>
      <path d="M144.83,229.41c-1.74.67-3.48,1.28-5.2,1.83-1.64.53-3.27,1-4.89,1.41" fill="none" stroke="#fff" stroke-miterlimit="10"/>
      <path d="M125.33,233.55c-.52-.11-1.04-.22-1.57-.34-.8-.18-1.61-.38-2.42-.59-1.56-.4-3.13-.85-4.7-1.36-1.68-.53-3.37-1.12-5.05-1.77-.03-.01-.06-.02-.09-.04-1.12-.42-2.24-.87-3.35-1.35-4.2-1.77-8.38-3.86-12.48-6.22-27.2-15.67-50.75-43.3-50.75-70.8,0-14.59-.04-44.95-.08-68.98,0-1.59,0-3.16-.01-4.69.01-1.61,0-3.18,0-4.71,0-3.35-.01-6.48-.02-9.31,0-2.09,0-4.02-.01-5.76,0-3.01,0-5.44-.01-7.13v-2.66c0-.81.42-1.56,1.1-1.97,1.38-.83,2.77-1.64,4.18-2.42.32-.19.64-.37.97-.54,4.88-2.68,9.91-5.08,15.06-7.2,2.44-1.01,4.92-1.96,7.41-2.83,4.29-1.52,8.65-2.85,13.06-3.99,27.04-7.01,56.01-7.01,83.05,0,4.41,1.13,8.77,2.46,13.06,3.99,2.5.87,4.97,1.82,7.42,2.83,5.15,2.12,10.17,4.52,15.05,7.2.33.17.65.35.97.54,1.41.78,2.8,1.59,4.18,2.42.69.41,1.1,1.16,1.1,1.97v1.46c0,.34,0,.74-.01,1.19,0,1.69,0,4.12-.01,7.14,0,1.74,0,3.67-.01,5.76,0,2.83,0,5.96-.01,9.31,0,1.53,0,3.1-.01,4.71v4.67c-.04,24.04-.08,54.41-.08,69,0,27.49-23.53,55.11-50.72,70.79" fill="none" stroke="#fff" stroke-miterlimit="10"/>
      <path d="M208.82,48.46v-.44l-.96-.57c-1.67-.99-3.36-1.94-5.07-2.86-3.51-1.89-7.11-3.64-10.78-5.24-19.67-8.62-41.45-13.12-63.91-13.12s-44.24,4.5-63.92,13.12c-3.67,1.6-7.27,3.35-10.78,5.24-1.71.92-3.4,1.87-5.07,2.86l-.96.57v.42l.01,8v.31c.01,5.15.02,12.19.03,20.18.01.09.01.19,0,.28.05,24.65.09,58.27.09,73.87,0,32.78,40.51,73.29,80.27,80.27l.33.06.33-.06c39.75-6.98,80.26-47.49,80.26-80.27,0-15.6.05-49.23.08-73.88.01-.09.01-.18,0-.27.02-7.99.03-15.03.04-20.18v-.53l.01-7.76h0Z" fill="none" stroke="#fff" stroke-miterlimit="10"/>
    </g>
  </g>
  <polygon points="130.856 48.235 136.5 48.383 131.957 51.697 133.525 57 128.929 53.812 124.254 56.943 125.957 51.66 121.5 48.291 127.147 48.213 129.068 43 130.856 48.235" fill="url(#linear-gradient)"/>
  <polygon points="181.741 69.72 185.261 69.814 182.428 71.929 183.406 75.312 180.54 73.278 177.625 75.276 178.686 71.905 175.907 69.755 179.429 69.706 180.627 66.38 181.741 69.72" fill="url(#linear-gradient1)"/>
  <polygon points="160.783 56.414 164.303 56.508 161.469 58.622 162.447 62.006 159.582 59.972 156.666 61.97 157.728 58.599 154.948 56.449 158.47 56.399 159.668 53.074 160.783 56.414" fill="url(#linear-gradient2)"/>
  <polygon points="100.468 56.04 103.988 56.135 101.154 58.249 102.132 61.633 99.266 59.599 96.351 61.596 97.413 58.225 94.633 56.076 98.155 56.026 99.353 52.7 100.468 56.04" fill="url(#linear-gradient3)"/>
  <polygon points="78.926 70.397 82.446 70.491 79.613 72.605 80.591 75.989 77.725 73.955 74.809 75.952 75.871 72.581 73.092 70.432 76.614 70.382 77.812 67.056 78.926 70.397" fill="url(#linear-gradient4)"/>
  <g isolation="isolate">
    <g isolation="isolate">
      <text transform="translate(54.622 107.945) scale(1.314 1)" fill="#fff" font-family="Blackpast-Regular, Blackpast" font-size="24" isolation="isolate"><tspan x="0" y="0">VETERAN</tspan></text>
    </g>
  </g>
  <polygon points="90.019 137.188 72.81 136.829 72.81 163.318 90.019 164.752 90.019 137.188" fill="url(#linear-gradient5)"/>
  <polygon points="129 138 108.685 137.577 108.685 166.307 129 168 129 138" fill="url(#linear-gradient6)"/>
  <polygon points="108.685 166.307 90.019 164.752 90.019 192.225 108.685 194.943 108.685 166.307" fill="url(#linear-gradient7)"/>
  <polygon points="129 198 108.685 195.037 108.685 223.768 129 228 129 198" fill="url(#linear-gradient8)"/>
  <polygon points="51.363 136.383 56.868 136.497 56.868 161.989 51.363 161.53 51.363 136.383" fill="url(#linear-gradient9)"/>
  <polygon points="56.868 180.794 72.81 182.857 72.81 163.318 56.868 161.989 56.868 180.794" fill="url(#linear-gradient10)"/>
  <line x1="149.696" y1="137.577" x2="167.5" y2="137.577" fill="none"/>
  <polygon points="148.99 137.254 167.5 136.84 167.5 164.939 148.99 166.595 148.99 137.254" fill="url(#linear-gradient11)"/>
  <polygon points="185.242 137.205 201.11 136.84 201.11 161.646 185.242 163.107 185.242 137.205" fill="url(#linear-gradient12)"/>
  <polyline points="129 168 148.99 166.595 148.99 195.037 129 198 129 198 129 168" fill="url(#linear-gradient13)"/>
  <polyline points="168.063 192.052 185.242 189.557 185.242 163.107 167.5 164.939" fill="url(#linear-gradient14)"/>
  <polyline points="51.363 161.53 49.397 161.53 48.229 154.377 48.229 136.383 51.363 136.383" fill="url(#linear-gradient15)"/>
  <path d="M72.608,199.205v-3.697,3.697Z" fill="url(#linear-gradient16)"/>
  <path d="M67.664,194.72" fill="url(#linear-gradient17)"/>
  <polyline points="73.36 189.689 73.36 200.351 90.019 214.261 90.019 192.225" fill="url(#linear-gradient18)"/>
  <polyline points="149.343 195.117 149.343 223.2 158.665 218.869 167.987 213.055 167.987 192.759" fill="url(#linear-gradient19)"/>
  <polyline points="185.242 190.254 185.242 198 193.121 189.055" fill="url(#linear-gradient20)"/>
  <polyline points="201.11 161.646 201.11 176.161 206.466 161.109" fill="url(#linear-gradient21)"/>
</svg>