<?xml version="1.0" encoding="UTF-8"?>
<svg xmlns="http://www.w3.org/2000/svg" version="1.1" xmlns:xlink="http://www.w3.org/1999/xlink" viewBox="0 0 256 256">
  <!-- Generator: Adobe Illustrator 29.5.1, SVG Export Plug-In . SVG Version: 2.1.0 Build 141)  -->
  <defs>
    <radialGradient id="radial-gradient" cx="128" cy="128.054" fx="128" fy="128.054" r="86.071" gradientUnits="userSpaceOnUse">
      <stop offset=".676" stop-color="#f90024"/>
      <stop offset=".81" stop-color="#000"/>
    </radialGradient>
    <linearGradient id="linear-gradient" x1="49.715" y1="128.054" x2="205.894" y2="128.054" gradientUnits="userSpaceOnUse">
      <stop offset="0" stop-color="#000"/>
      <stop offset=".508" stop-color="#e70013"/>
      <stop offset="1" stop-color="#000"/>
    </linearGradient>
  </defs>
  <g id="Layer_3">
    <path d="M120.79,38.674c30.709-1.091,62.356,5.24,89.71,18.887v92.439c-2.449,31.079-43.646,58.112-71.271,65.576-9.766,2.638-12.694,2.637-22.457,0-28.083-7.585-68.848-34.523-71.271-66.045V57.561c22.945-11.402,49.542-17.972,75.29-18.887Z" fill="url(#radial-gradient)" stroke="#bf001a" stroke-miterlimit="10" stroke-width="1.053"/>
    <path d="M120.98,42.813c29.068-1.04,59.023,4.998,84.914,18.012v88.158c-2.318,29.64-41.313,55.421-67.461,62.539-9.244,2.516-12.015,2.515-21.256,0-26.581-7.234-65.167-32.925-67.461-62.986V60.825c21.718-10.874,46.893-17.14,71.265-18.012Z" fill="url(#linear-gradient)" stroke="#000" stroke-miterlimit="10"/>
  </g>
  <g id="Layer_1" display="none">
    <g id="Layer_2" display="none">
      <rect width="256" height="256"/>
    </g>
    <line x1="100.784" y1="41.949" x2="102.936" y2="52.563" fill="none" isolation="isolate" opacity=".01" stroke="#231f20" stroke-linecap="round" stroke-miterlimit="10" stroke-width=".25"/>
    <line x1="155.436" y1="41.917" x2="153.218" y2="52.221" fill="none" isolation="isolate" opacity=".04" stroke="#231f20" stroke-linecap="round" stroke-miterlimit="10" stroke-width=".25"/>
    <text transform="translate(85.078 130.508) scale(1.314 1)" font-family="Blackpast-Regular, Blackpast" font-size="17" isolation="isolate" stroke="#ffe955" stroke-miterlimit="10"><tspan x="0" y="0">LEGEND</tspan></text>
  </g>
</svg>