<?xml version="1.0" encoding="UTF-8"?>
<svg id="Layer_1" xmlns="http://www.w3.org/2000/svg" version="1.1" xmlns:xlink="http://www.w3.org/1999/xlink" viewBox="0 0 256 256">
  <!-- Generator: Adobe Illustrator 29.5.1, SVG Export Plug-In . SVG Version: 2.1.0 Build 141)  -->
  <defs>
    <linearGradient id="Gold" x1="19" y1="128.5" x2="238" y2="128.5" gradientTransform="translate(0 256) scale(1 -1)" gradientUnits="userSpaceOnUse">
      <stop offset="0" stop-color="#ffe7a3"/>
      <stop offset=".5" stop-color="#ffca05"/>
      <stop offset="1" stop-color="#faac18"/>
    </linearGradient>
    <linearGradient id="Orange" x1="3" y1="127" x2="253.553" y2="127" gradientUnits="userSpaceOnUse">
      <stop offset="0" stop-color="#f69453"/>
      <stop offset=".5" stop-color="#f37521"/>
      <stop offset="1" stop-color="#d4622a"/>
    </linearGradient>
  </defs>
  <g id="Layer_2" display="none">
    <rect width="256" height="256"/>
  </g>
  <line x1="100.783" y1="30.641" x2="102.935" y2="41.255" fill="none" isolation="isolate" opacity=".01" stroke="#231f20" stroke-linecap="round" stroke-miterlimit="10" stroke-width=".25"/>
  <line x1="155.435" y1="30.609" x2="153.217" y2="40.913" fill="none" isolation="isolate" opacity=".04" stroke="#231f20" stroke-linecap="round" stroke-miterlimit="10" stroke-width=".25"/>
  <line x1="112.522" y1="229.815" x2="113.207" y2="227.712" fill="none" stroke="#231f20" stroke-linecap="round" stroke-miterlimit="10" stroke-opacity="0" stroke-width=".25"/>
  <line x1="142.799" y1="227.663" x2="143.63" y2="229.766" fill="none" stroke="#231f20" stroke-linecap="round" stroke-miterlimit="10" stroke-opacity="0" stroke-width=".25"/>
  <polygon points="127.804 127.997 127.804 127.997 127.804 127.997 127.804 127.997" fill="#1f1f1f"/>
  <polygon points="127.804 127.997 127.804 127.997 127.804 127.997 127.804 127.997" fill="#1f1f1f"/>
  <polygon points="127.804 127.997 127.804 127.997 127.804 127.997 127.804 127.997" fill="#1f1f1f"/>
  <polygon points="127.804 127.997 127.804 127.997 127.804 127.997 127.804 127.997" fill="#1f1f1f"/>
  <polygon points="127.804 127.997 127.807 127.997 127.807 127.997 127.804 127.997" fill="#1f1f1f"/>
  <polygon points="237.589 65.384 236.913 63.795 236.913 63.795 237.701 65.338 237.312 64.57 237.589 65.384" fill="#1f1f1f"/>
  <polygon points="127.804 127.997 127.804 127.997 127.804 127.997 127.804 127.997" fill="#1f1f1f"/>
  <polygon points="127.804 127.997 127.804 127.997 127.804 127.997 127.804 127.997" fill="#1f1f1f"/>
  <polygon points="127.804 127.997 127.804 127.997 127.804 127.997 127.804 127.997" fill="#1f1f1f"/>
  <polygon points="237.309 64.567 237.307 64.567 237.309 64.567 237.309 64.567" fill="#1f1f1f"/>
  <polygon points="237.829 190.886 237.829 190.886 238.105 190.066 237.714 190.838 237.714 190.838 238.108 190.062 238.382 189.244 238.112 190.059 238.5 189.293 238.108 190.062 237.829 190.886" fill="#1f1f1f"/>
  <polygon points="237.829 190.881 237.829 190.881 238.382 189.244 237.829 190.881" fill="#1f1f1f"/>
  <circle cx="128.5" cy="127.5" r="109.5" fill="url(#Gold)"/>
  <text transform="translate(56.884 137.714) scale(1.377 1)" fill="#fff" font-family="Blackpast-Regular, Blackpast" font-size="39" isolation="isolate" stroke="#e77c00" stroke-miterlimit="10"><tspan x="0" y="0">elite</tspan></text>
  <path d="M127.896,61.392l1.086,2.449,2.142.548-1.487,2.081.253,2.772-2.005-1.166-1.984,1.166.246-2.801-1.479-2.053,2.16-.562,1.068-2.433h0v-.002ZM141.354,62.785h0l.516,2.736,1.939,1.281-1.877,1.474-.353,2.755-1.676-1.824-2.157.42.842-2.605-.982-2.495,2.197.219,1.551-1.961h0ZM153.408,66.157h0l.324,2.785,1.841,1.499-1.974,1.254-.544,2.703-1.541-2.012-2.178.172,1.021-2.498-.801-2.596,2.173.47,1.683-1.777h0v-.002ZM164.624,70.424h0l-.138,2.812,1.558,1.957-2.136.701-.971,2.499-1.181-2.378-2.157-.412,1.405-2.171-.361-2.753,2.049,1.038,1.934-1.291h0v-.002ZM114.733,62.785h0l-.516,2.736-1.938,1.281,1.877,1.474.355,2.755,1.675-1.824,2.16.42-.841-2.605.98-2.495-2.196.219-1.553-1.961h-.002ZM102.68,66.157h0l-.32,2.785-1.843,1.499,1.974,1.254.544,2.703,1.543-2.012,2.178.172-1.021-2.498.801-2.596-2.173.47-1.686-1.777h0v-.002ZM91.464,70.424h0l.14,2.812-1.56,1.957,2.136.701.974,2.499,1.18-2.378,2.157-.412-1.403-2.171.361-2.753-2.049,1.038-1.936-1.291v-.002Z" fill="#fff" fill-rule="evenodd"/>
  <path d="M18.247,127.004c0-60.296,49.263-109.172,110.035-109.172h0c60.768,0,110.03,48.876,110.03,109.172h0c0,60.292-49.262,109.166-110.03,109.166h0c-60.773,0-110.035-48.875-110.035-109.166h0ZM52.238,51.556c-19.462,19.312-31.496,45.98-31.496,75.448h0c0,29.464,12.034,56.13,31.496,75.442h0c19.466,19.313,46.343,31.252,76.044,31.252h0c29.697,0,56.574-11.938,76.039-31.252h0c19.462-19.311,31.495-45.978,31.495-75.442h0c0-29.468-12.033-56.135-31.495-75.448h0c-19.466-19.308-46.342-31.249-76.039-31.249h0c-29.701,0-56.579,11.94-76.044,31.249h0ZM106.068,247.648l-3.482-1.542,3.724-.801c.007,0,2.753-.593,6.107-1.54h0c3.344-.943,7.311-2.277,9.519-3.601h0c3.531-2.084,7.61-4.503,11.574-5.87h0c-3.284-1.067-7.652-2.461-9.842-3.059h0c-4.361-1.24-12.413-7.268-12.499-7.3h0l-2.258-1.66,2.754-.548c.04-.003,7.691-1.54,13.013-1.545h0c.669,0,1.308.024,1.902.084h0c5.506.602,10.433,5.327,13.339,7.678h0c1.111.952,3.865,1.955,6.231,2.579h0c2.381.639,4.403.985,4.41.989h0l2.429.41-1.777,1.702c-.011.007-7.408,7.058-9.813,9.441h0c-2.428,2.417-6.562,6.508-14.14,8.498h0c-1.172.304-2.432.429-3.733.435h0c-7.766-.033-17.379-4.334-17.458-4.351h0ZM87.101,243.827c-.869,0-1.772-.038-2.717-.118h0c-8.324-.853-18.439-10.838-18.566-10.873h0l-2.732-2.625,3.765.508c.012,0,6.159.828,11.518.825h0c1.866.004,3.635-.101,4.935-.354h0c3.918-.757,8.462-1.592,12.559-1.596h0c.114,0,.227,0,.341.002h0c-2.718-2.117-6.341-4.905-8.192-6.21h0c-3.669-2.649-9.159-11.044-9.232-11.101h0l-1.552-2.332,2.783.422c.063.028,9.772,1.451,14.517,3.691h0c4.969,2.436,7.973,8.549,9.894,11.747h0c.713,1.268,2.956,3.145,4.964,4.527h0c2.018,1.412,3.797,2.428,3.803,2.431h0l2.145,1.214-2.262.992c-.013.007-9.393,4.119-12.476,5.542h0c-2.736,1.263-7.158,3.31-13.481,3.308h-.015ZM46.797,221.779c-7.527-3.627-13.587-16.444-13.697-16.517h0l-1.667-3.395,3.368,1.758c.007,0,2.494,1.296,5.679,2.71h0c3.172,1.409,7.073,2.921,9.625,3.312h0c4.055.654,8.746,1.407,12.67,2.887h0c-1.826-2.912-4.269-6.767-5.561-8.618h0c-2.534-3.733-4.8-13.488-4.849-13.567h0l-.659-2.715,2.469,1.343c.052.042,8.685,4.677,12.376,8.394h0c3.826,3.968,4.544,10.733,5.245,14.385h0c.234,1.438,1.693,3.959,3.104,5.948h0c1.408,2.009,2.731,3.567,2.734,3.571h0l1.591,1.866-2.46.164c-.013.003-10.247.684-13.638.979h0c-1.123.091-2.514.216-4.125.216h-.032c-3.267,0-7.434-.516-12.175-2.719h.002ZM46.674,200.017c-.013-.003-9.862-2.834-13.143-3.709h0c-3.32-.879-8.962-2.384-14.489-7.894h0c-5.825-5.962-7.105-20.064-7.181-20.17h0l-.394-3.753,2.557,2.787c.007.005,1.894,2.069,4.399,4.475h0c2.496,2.403,5.644,5.146,7.906,6.383h0c3.583,1.988,7.736,4.285,10.914,7.007h0c-.712-3.355-1.681-7.804-2.258-9.983h0c-.357-1.372-.446-3.151-.45-5.054h0c0-4.377.575-9.313.577-9.337h0l.319-2.772,1.857,2.098c.031.056,6.546,7.34,8.728,12.082h0c.856,1.883,1.121,3.986,1.124,6.072h0c-.004,3.476-.76,6.944-1.155,9.239h0c-.048.267-.075.606-.075.999h0c-.008,1.756.556,4.297,1.133,6.325h0c.577,2.044,1.148,3.589,1.151,3.591h0l.85,2.299-2.369-.682h0v-.002ZM26.425,167.926c-.011-.009-8.289-6.015-11.07-7.952h0c-2.823-1.953-7.604-5.282-10.895-12.34h0c-1.123-2.415-1.45-5.38-1.459-8.347h0c.008-6.463,1.654-12.987,1.664-13.04h0l.923-3.661,1.444,3.491c.004.008,1.067,2.587,2.594,5.701h0c1.515,3.103,3.524,6.747,5.221,8.672h0c2.685,3.087,5.794,6.653,7.84,10.291h0c.487-3.394,1.113-7.903,1.323-10.149h0c.477-4.473,5.061-13.388,5.076-13.478h0l1.256-2.499,1.025,2.601c.007.065,3.619,9.122,4.04,14.333h0c.014.247.024.506.024.769h0c-.041,5.223-3.58,10.496-5.33,13.585h0c-1.488,2.41-1.719,9.928-1.695,10.908h0l.357,2.808-2.338-1.691h0ZM23.287,155.258l1.204-.324-1.204.324h0ZM18.462,130.891c-.006-.011-5.719-8.456-7.665-11.222h0c-1.976-2.794-5.321-7.547-5.985-15.28h0c-.03-.339-.044-.675-.044-1.005h0c.081-8.148,7.589-18.921,7.61-19.033h0l2.127-3.139.155,3.78c0,.007.109,2.793.471,6.234h0c.356,3.431.992,7.54,1.923,9.929h0c1.458,3.805,3.144,8.22,3.814,12.331h0c1.631-3.024,3.772-7.053,4.743-9.09h0c1.991-4.046,9.375-10.866,9.42-10.947h0l2.045-1.917.062,2.789c0,.007.014.645.014,1.672h0c-.012,3.052-.1,9.377-1.157,13.153h0c-1.553,5.274-7.094,9.27-9.936,11.701h0c-1.139.923-2.613,3.434-3.638,5.643h0c-1.051,2.217-1.748,4.128-1.748,4.135h0l-.839,2.304-1.372-2.037h.002ZM21.12,118.029l-1.242-.103,1.242.103h0ZM23.739,93.393c-.003-.013-2.457-9.889-3.329-13.146h0c-.566-2.084-1.381-5.093-1.381-8.914h0c0-2.227.277-4.727,1.027-7.488h0c2.293-7.983,13.964-16.133,14.019-16.251h0l3.084-2.224-1.164,3.601c.007.018-3.353,10.501-3.325,15.783h0c0,.062,0,.133.003.22h0c.013,1.054.03,2.157.03,3.286h0c-.009,3.203-.115,6.565-.694,9.591h0c2.571-2.29,5.972-5.346,7.588-6.93h0c3.263-3.127,12.555-7.033,12.625-7.09h0l2.579-1.113-.9,2.643c-.034.059-3.134,9.296-6.184,13.551h0c-3.283,4.426-9.868,6.301-13.374,7.617h0c-1.389.479-3.639,2.346-5.365,4.07h0c-1.753,1.727-3.066,3.29-3.07,3.293h0l-1.582,1.879-.587-2.377h0ZM30.678,82.208l-1.132-.517,1.132.517h0ZM41.629,59.949c.003-.014,1.106-10.131,1.402-13.488h0c.297-3.403.813-9.176,5.325-15.529h0c4.906-6.725,18.68-10.42,18.772-10.515h0l3.667-1.046-2.334,2.994s-1.725,2.208-3.678,5.073h0c-1.95,2.855-4.124,6.408-4.956,8.832h0c-1.356,3.847-2.915,8.299-5.067,11.877h0c3.207-1.277,7.457-2.996,9.52-3.935h0c4.145-1.833,14.222-2.353,14.311-2.383h0l2.807-.169-1.76,2.178c-.051.04-6.152,7.672-10.483,10.636h0c-3.78,2.504-9.02,2.603-12.875,2.623h0c-.772,0-1.486-.006-2.115-.006h0c-.059,0-.126.004-.203.004h0c-1.468-.021-4.228.969-6.447,2.005h0c-2.238,1.027-4.015,2.05-4.018,2.053h0l-2.133,1.226.264-2.428h0v-.002ZM51.999,51.793l-.882-.874.882.874h0ZM82.538,36.088c-.812-.296-2.223-.448-3.72-.44h0c-3.508-.004-7.504.7-7.51.703h0l-2.428.432,1.089-2.193c.007-.013,4.528-9.143,5.967-12.199h0c1.45-3.097,3.927-8.345,10.353-12.785h0c4.775-3.242,12.872-3.579,17.621-3.617h0c2.181,0,3.628.102,3.649.102h0l3.8.266-3.22,2.015c-.006.007-2.381,1.493-5.207,3.524h0c-2.816,2.022-6.086,4.621-7.702,6.616h0c-2.599,3.152-5.6,6.811-8.855,9.444h0c3.452-.114,8.032-.286,10.285-.469h0c.264-.023.527-.03.791-.03h0c4.7.024,13.427,2.64,13.491,2.646h0l2.697.792-2.401,1.452c-.065.021-8.427,5.122-13.517,6.437h0c-.973.238-1.974.34-2.976.34h0c-4.555-.015-9.313-2.012-12.206-3.037h0v.002ZM82.527,30.447l-.529-1.121.529,1.121h0ZM129.979,33.735c-5.51-.606-10.437-5.332-13.343-7.684h0c-1.111-.949-3.863-1.953-6.233-2.573h0c-2.379-.644-4.403-.99-4.406-.99h0l-2.431-.418,1.778-1.694c.006-.011,7.404-7.057,9.811-9.435h0c2.427-2.422,6.57-6.512,14.139-8.506h0c1.177-.313,2.437-.435,3.738-.435h0c7.764.027,17.379,4.339,17.457,4.353h0l3.48,1.535-3.722.806c-.006.003-2.752.592-6.106,1.542h0c-3.345.943-7.31,2.277-9.518,3.602h0c-3.533,2.085-7.613,4.502-11.577,5.871h0c3.286,1.064,7.654,2.458,9.843,3.056h0c4.363,1.241,12.415,7.269,12.504,7.3h0l2.269,1.661-2.764.549c-.04.004-7.706,1.535-13.027,1.543h0c-.669,0-1.301-.023-1.891-.082h0ZM176.55,43.623c-.064-.022-9.774-1.449-14.524-3.687h0c-4.967-2.437-7.971-8.546-9.887-11.748h0c-.717-1.27-2.957-3.145-4.971-4.53h0c-2.016-1.412-3.796-2.423-3.8-2.427h0l-2.138-1.218,2.253-.989c.013-.006,9.391-4.119,12.473-5.538h0c2.738-1.273,7.166-3.32,13.499-3.315h0c.873,0,1.777.039,2.718.124h0c8.32.851,18.436,10.838,18.56,10.872h0l2.753,2.63-3.786-.513c-.011.003-6.15-.825-11.501-.825h0c-1.868,0-3.647.107-4.953.36h0c-3.915.745-8.458,1.585-12.556,1.589h0c-.116,0-.232,0-.348-.003h0c2.72,2.114,6.346,4.906,8.197,6.211h0c3.674,2.647,9.164,11.045,9.235,11.101h0l1.556,2.333-2.784-.426h.004ZM202.382,65.034c-.052-.043-8.686-4.679-12.383-8.396h0c-3.821-3.976-4.539-10.735-5.237-14.392h0c-.236-1.437-1.694-3.96-3.107-5.945h0c-1.409-2.013-2.733-3.568-2.736-3.572h0l-1.587-1.867,2.458-.165c.014,0,10.243-.686,13.625-.97h0c1.129-.102,2.525-.219,4.137-.219h0c3.274-.004,7.454.514,12.209,2.722h0c7.525,3.623,13.587,16.443,13.699,16.515h0l1.68,3.41-3.383-1.77c-.006-.003-2.493-1.299-5.679-2.71h0c-3.173-1.412-7.072-2.921-9.622-3.313h0c-4.059-.655-8.752-1.409-12.678-2.889h0c1.826,2.911,4.27,6.769,5.561,8.622h0c2.539,3.732,4.805,13.487,4.852,13.567h0l.66,2.719-2.47-1.345h0ZM219.277,93.914c-.034-.058-6.551-7.344-8.74-12.088h0c-.855-1.885-1.123-3.982-1.123-6.061h0c.004-3.477.764-6.954,1.16-9.232h0c.047-.288.075-.63.071-1.014h0c.011-1.756-.552-4.294-1.132-6.331h0c-.576-2.041-1.149-3.587-1.149-3.591h0l-.85-2.294,2.367.68c.013,0,9.862,2.832,13.142,3.713h0c3.33.877,8.965,2.39,14.493,7.894h0c5.826,5.96,7.099,20.061,7.177,20.166h0l.398,3.762-2.561-2.797c-.007-.003-1.897-2.067-4.403-4.473h0c-2.494-2.403-5.642-5.144-7.899-6.376h0c-3.586-1.995-7.737-4.294-10.915-7.018h0c.712,3.356,1.68,7.81,2.254,9.989h0c.355,1.373.45,3.161.454,5.075h0c0,4.373-.567,9.293-.571,9.316h0l-.316,2.778-1.859-2.103h0v.002ZM249.526,127.923c-.004-.007-1.067-2.586-2.596-5.696h0c-1.515-3.105-3.526-6.749-5.225-8.673h0c-2.682-3.091-5.789-6.661-7.838-10.298h0c-.486,3.395-1.112,7.907-1.324,10.151h0c-.475,4.476-5.057,13.391-5.075,13.48h0l-1.256,2.5-1.023-2.601c-.009-.065-3.621-9.12-4.038-14.312h0c-.023-.271-.03-.535-.03-.793h0c.038-5.222,3.584-10.491,5.339-13.582h0c1.559-2.546,1.734-10.736,1.689-11.008h0c0-.085.006-.168.023-.257h0l.386-1.897,1.573,1.141c.014.006,8.291,6.009,11.067,7.949h0c2.829,1.954,7.608,5.285,10.896,12.337h0c1.123,2.412,1.453,5.378,1.458,8.347h0c-.005,6.461-1.652,12.988-1.663,13.042h0l-.92,3.672-1.443-3.502h-.002ZM241.898,169.006s-.115-2.79-.473-6.23h0c-.358-3.432-.992-7.539-1.925-9.924h0c-1.457-3.813-3.14-8.224-3.814-12.333h0c-1.629,3.022-3.771,7.051-4.745,9.086h0c-1.985,4.046-9.367,10.869-9.416,10.953h0l-2.042,1.911-.062-2.781c0-.007-.018-.655-.018-1.683h0c.011-3.054.104-9.373,1.157-13.147h0c1.554-5.275,7.098-9.268,9.938-11.707h0c1.139-.917,2.61-3.434,3.639-5.638h0c1.05-2.216,1.746-4.132,1.75-4.136h0l.834-2.297,1.374,2.029c.008.01,5.719,8.459,7.664,11.224h0c1.979,2.794,5.32,7.548,5.987,15.299h0c.023.319.037.648.037.988h0c-.079,8.149-7.588,18.918-7.609,19.029h0l-2.131,3.136-.147-3.779h0ZM220.56,205.031c-.003-.018,3.35-10.502,3.322-15.78h0v-.215h0c-.021-1.052-.033-2.144-.033-3.256h0c.009-3.216.116-6.596.698-9.63h0c-2.571,2.29-5.972,5.347-7.591,6.93h0c-3.26,3.125-12.55,7.033-12.622,7.091h0l-2.584,1.116.905-2.649c.034-.054,3.137-9.291,6.185-13.547h0c3.281-4.426,9.864-6.301,13.375-7.62h0c1.386-.481,3.635-2.344,5.36-4.066h0c1.751-1.723,3.065-3.287,3.068-3.292h0l1.576-1.876.594,2.37c0,.014,2.46,9.89,3.33,13.154h0c.56,2.073,1.379,5.083,1.379,8.904h0c0,2.226-.276,4.729-1.025,7.493h0c-2.287,7.986-13.96,16.127-14.015,16.249h0l-3.081,2.22,1.158-3.596h0ZM188.1,231.64c.004-.007,1.724-2.211,3.673-5.076h0c1.954-2.854,4.125-6.407,4.958-8.829h0c1.357-3.853,2.919-8.303,5.07-11.883h0c-3.207,1.28-7.458,2.999-9.522,3.937h0c-4.145,1.829-14.221,2.351-14.312,2.384h0l-2.812.167,1.764-2.176c.052-.044,6.152-7.673,10.482-10.636h0c3.788-2.525,9.054-2.612,12.913-2.633h0c.733,0,1.411.011,2.008.011h0c.111,0,.204.002.272.002h0c1.471.018,4.228-.972,6.444-2.002h0c2.24-1.03,4.015-2.053,4.018-2.056h0l2.13-1.228-.261,2.431c-.004.014-1.099,10.128-1.406,13.483h0c-.29,3.405-.81,9.182-5.32,15.534h0c-4.901,6.726-18.678,10.42-18.771,10.516h0l-3.656,1.036,2.326-2.982h.002ZM149.003,247.91l-3.803-.267,3.222-2.016c.006-.003,2.379-1.493,5.205-3.52h0c2.815-2.023,6.081-4.621,7.699-6.62h0c2.603-3.154,5.605-6.81,8.859-9.441h0c-3.457.115-8.048.288-10.319.471h0c-.235.014-.49.026-.762.026h0c-4.698-.022-13.424-2.639-13.49-2.642h0l-2.694-.801,2.401-1.445c.063-.02,8.424-5.122,13.508-6.433h0c.977-.253,1.979-.349,2.983-.353h0c4.553.016,9.311,2.02,12.207,3.038h0c.815.298,2.223.45,3.723.443h0c3.504.004,7.495-.699,7.505-.703h0l2.422-.435-1.083,2.197c-.007.012-4.523,9.146-5.967,12.196h0c-1.446,3.101-3.925,8.346-10.354,12.789h0c-4.774,3.234-12.863,3.58-17.609,3.613h0c-2.181,0-3.629-.1-3.651-.1h0ZM128.277,215.561c-12.049,0-23.739-2.342-34.745-6.961-10.63-4.461-20.175-10.846-28.372-18.977-8.197-8.132-14.632-17.602-19.128-28.149-4.656-10.921-7.016-22.519-7.016-34.472s2.361-23.553,7.016-34.473c4.496-10.546,10.931-20.016,19.128-28.149,8.197-8.132,17.742-14.517,28.372-18.977,11.007-4.619,22.697-6.961,34.745-6.961s23.739,2.342,34.745,6.961c10.63,4.461,20.175,10.846,28.371,18.977,8.197,8.132,14.632,17.602,19.128,28.149,4.656,10.921,7.016,22.519,7.016,34.473s-2.361,23.553-7.016,34.472c-4.496,10.546-10.931,20.017-19.128,28.149-8.197,8.132-17.742,14.517-28.371,18.977-11.007,4.619-22.697,6.961-34.745,6.961ZM128.277,45.598c-45.24,0-82.045,36.516-82.045,81.402s36.806,81.402,82.045,81.402,82.045-36.516,82.045-81.402-36.806-81.402-82.045-81.402Z" fill="url(#Orange)" stroke="#fff" stroke-miterlimit="10" stroke-width=".978"/>
  <path d="M60.812,168.143c-.601.598-1.043,1.298-1.334,2.104.409-.013,1.222-.034,1.624-.04,17.756-5.264,35.533-10.508,53.276-15.833,4.497,18.065,9.443,36.01,14.072,54.028.31-.04.924-.134,1.228-.175,1.255-3.994,2.014-8.128,3.17-12.149,3.5-13.931,7.66-27.686,10.935-41.677,16.086,4.747,32.198,9.466,48.264,14.307,2.232.471,4.398,1.728,6.735,1.298-.482-.746-.957-1.486-1.565-2.111-13.18-13.5-26.129-27.229-39.382-40.642,13.656-13.816,26.942-28.023,40.65-41.785-.291-.444-.588-.888-.878-1.318-17.862,5.419-35.896,10.233-53.718,15.786-4.721-18.112-9.542-36.198-14.164-54.337-.35.034-1.043.101-1.393.134-4.253,18.18-9.43,36.124-14.032,54.216-18.258-5.278-36.398-11.033-54.781-15.86-.086,1.311,1.023,2.091,1.823,2.938,13.22,13.231,26.03,26.886,39.244,40.111-13.451,13.473-26.407,27.444-39.772,41.005ZM74.54,97.818c-3.295-3.624-7.092-6.777-10.176-10.596,15.062,4.135,29.999,8.734,44.982,13.144,2.08.619,4.154,1.304,6.319,1.56,4.246-17.117,8.888-34.127,13.438-51.157,4.583,17.023,9.06,34.087,13.451,51.164,7.733-1.815,15.287-4.39,22.94-6.548,9.482-2.649,18.866-5.688,28.427-8.048-12.85,13.191-25.535,26.557-38.438,39.694.423.639.839,1.291,1.373,1.862,10.044,10.186,19.995,20.466,29.874,30.813,2.456,2.528,4.972,5.009,7.244,7.718-13.53-4.162-27.16-7.954-40.677-12.149-3.612-.941-7.112-2.346-10.797-2.931-2.998,12.882-6.775,25.555-10.017,38.376-1.195,4.236-2.232,8.525-3.473,12.747-4.114-15.195-8.102-30.429-11.959-45.691-.522-1.835-.845-3.738-1.598-5.493-17.063,4.713-33.941,10.199-51.004,14.959,4.041-4.666,8.584-8.861,12.797-13.373,8.499-8.915,17.096-17.749,25.727-26.537-9.278-10.038-18.998-19.639-28.434-29.515Z" fill="#fff" opacity=".3" stroke="#fff" stroke-miterlimit="10"/>
</svg>