<?xml version="1.0" encoding="UTF-8"?>
<svg id="Layer_1" xmlns="http://www.w3.org/2000/svg" version="1.1" xmlns:xlink="http://www.w3.org/1999/xlink" viewBox="0 0 256 256">
  <!-- Generator: Adobe Illustrator 29.5.1, SVG Export Plug-In . SVG Version: 2.1.0 Build 141)  -->
  <defs>
    <linearGradient id="Spectrum_" data-name="Spectrum " x1="25.328" y1="128.097" x2="230.672" y2="128.097" gradientUnits="userSpaceOnUse">
      <stop offset="0" stop-color="#00a8de"/>
      <stop offset=".2" stop-color="#333391"/>
      <stop offset=".4" stop-color="#e91388"/>
      <stop offset=".6" stop-color="#eb2d2e"/>
      <stop offset=".8" stop-color="#fde92b"/>
      <stop offset="1" stop-color="#009e54"/>
    </linearGradient>
    <linearGradient id="Light_Spectrum_" data-name="Light Spectrum " x1="136.088" y1="63.264" x2="138.531" y2="63.264" gradientUnits="userSpaceOnUse">
      <stop offset="0" stop-color="#bddeeb"/>
      <stop offset=".2" stop-color="#bcb7d5"/>
      <stop offset=".4" stop-color="#f0c9d7"/>
      <stop offset=".6" stop-color="#f3c6b3"/>
      <stop offset=".8" stop-color="#f5f2ca"/>
      <stop offset="1" stop-color="#c1dec7"/>
    </linearGradient>
    <linearGradient id="Spectrum_1" data-name="Spectrum " x1="135.539" y1="63.264" x2="139.08" y2="63.264" xlink:href="#Spectrum_"/>
    <linearGradient id="Light_Spectrum_1" data-name="Light Spectrum " x1="195.608" y1="63.057" x2="198.126" y2="63.057" xlink:href="#Light_Spectrum_"/>
    <linearGradient id="Spectrum_2" data-name="Spectrum " x1="195.061" y1="63.057" x2="198.674" y2="63.057" xlink:href="#Spectrum_"/>
  </defs>
  <g opacity=".91">
    <path d="M209.989,179.618c25.062-31.241,7.744-59.624-8.309-60.882-12.672-.995-17.129,12.164-18.252,18.542-3.346,18.973-3.928,55.161-19.4,74.617-15.477,19.456-44.814,16.936-44.814,16.936,38.346-4.807,37.187-51.5,40.192-69.582,3.005-18.082,5.198-41.426,26.908-47.49,45.867-12.815,44.926,51.267,23.674,67.86ZM75.095,210.882c31.524,24.833,60.167,7.671,61.437-8.235,1.006-12.559-12.272-16.971-18.705-18.088-19.151-3.317-55.669-3.888-75.303-19.223-19.629-15.336-17.088-44.406-17.088-44.406,4.852,37.993,51.971,36.852,70.217,39.826,18.247,2.974,41.803,5.151,47.925,26.667,12.93,45.447-51.735,44.516-68.482,23.46ZM94.694,96.946c-3.005,18.083-5.198,41.426-26.909,47.496-45.867,12.809-44.925-51.273-23.674-67.866-25.061,31.241-7.744,59.625,8.309,60.882,12.672.995,17.123-12.163,18.253-18.542,3.345-18.973,3.922-55.161,19.399-74.617,15.477-19.456,44.808-16.936,44.808-16.936-38.34,4.807-37.187,51.5-40.186,69.582ZM230.565,132.849c-4.851-37.998-51.97-36.851-70.216-39.831-18.247-2.974-41.803-5.145-47.925-26.661-12.93-45.454,51.741-44.522,68.483-23.466-31.524-24.833-60.167-7.671-61.437,8.241-1.006,12.554,12.272,16.971,18.711,18.083,19.146,3.317,55.663,3.893,75.298,19.229,19.628,15.335,17.088,44.406,17.088,44.406Z" fill="url(#Spectrum_)"/>
    <path d="M209.989,179.618c25.062-31.241,7.744-59.624-8.309-60.882-12.672-.995-17.129,12.164-18.252,18.542-3.346,18.973-3.928,55.161-19.4,74.617-15.477,19.456-44.814,16.936-44.814,16.936,38.346-4.807,37.187-51.5,40.192-69.582,3.005-18.082,5.198-41.426,26.908-47.49,45.867-12.815,44.926,51.267,23.674,67.86ZM75.095,210.882c31.524,24.833,60.167,7.671,61.437-8.235,1.006-12.559-12.272-16.971-18.705-18.088-19.151-3.317-55.669-3.888-75.303-19.223-19.629-15.336-17.088-44.406-17.088-44.406,4.852,37.993,51.971,36.852,70.217,39.826,18.247,2.974,41.803,5.151,47.925,26.667,12.93,45.447-51.735,44.516-68.482,23.46ZM94.694,96.946c-3.005,18.083-5.198,41.426-26.909,47.496-45.867,12.809-44.925-51.273-23.674-67.866-25.061,31.241-7.744,59.625,8.309,60.882,12.672.995,17.123-12.163,18.253-18.542,3.345-18.973,3.922-55.161,19.399-74.617,15.477-19.456,44.808-16.936,44.808-16.936-38.34,4.807-37.187,51.5-40.186,69.582ZM230.565,132.849c-4.851-37.998-51.97-36.851-70.216-39.831-18.247-2.974-41.803-5.145-47.925-26.661-12.93-45.454,51.741-44.522,68.483-23.466-31.524-24.833-60.167-7.671-61.437,8.241-1.006,12.554,12.272,16.971,18.711,18.083,19.146,3.317,55.663,3.893,75.298,19.229,19.628,15.335,17.088,44.406,17.088,44.406Z" fill="none" stroke="#cda349" stroke-miterlimit="10"/>
  </g>
  <g id="Layer_11" data-name="Layer_1">
    <line x1="136.088" y1="57.384" x2="138.531" y2="69.144" fill="url(#Light_Spectrum_)" isolation="isolate" opacity=".01" stroke="url(#Spectrum_1)" stroke-miterlimit="10" stroke-width="1.121"/>
    <line x1="198.126" y1="57.348" x2="195.608" y2="68.765" fill="url(#Light_Spectrum_1)" isolation="isolate" opacity=".04" stroke="url(#Spectrum_2)" stroke-miterlimit="10" stroke-width="1.121"/>
    <g isolation="isolate">
      <text id="IMMORTAL" transform="translate(101.185 130.261) scale(1.346 1)" font-family="Blackpast-Regular, Blackpast" font-size="18.836" isolation="isolate" stroke="#000" stroke-miterlimit="10" stroke-width="2"><tspan x="0" y="0">god</tspan></text>
    </g>
  </g>
</svg>