<?xml version="1.0" encoding="UTF-8"?>
<svg xmlns="http://www.w3.org/2000/svg" version="1.1" viewBox="0 0 256 256">
  <!-- Generator: Adobe Illustrator 29.5.1, SVG Export Plug-In . SVG Version: 2.1.0 Build 141)  -->
  <g id="Layer_2" display="none">
    <rect y="0" width="256" height="256"/>
  </g>
  <g id="Layer_4">
    <ellipse cx="128" cy="135" rx="102" ry="96" stroke="#231f20" stroke-linecap="round" stroke-miterlimit="10" stroke-width=".245"/>
  </g>
  <g id="Layer_3">
    <g>
      <g>
        <polygon points="238.67 135.59 235.07 140.02 238.2 144.79 232.88 142.73 229.31 147.18 229.62 141.48 224.29 139.46 229.8 138 230.07 132.3 233.17 137.09 238.67 135.59"/>
        <polygon points="234.5 123.08 238.39 127.26 232.8 126.12 230.03 131.11 229.38 125.44 223.78 124.35 228.97 121.98 228.28 116.32 232.14 120.52 237.31 118.12 234.5 123.08"/>
        <polygon points="237.07 153.05 232.78 156.8 235.06 162.03 230.16 159.11 225.9 162.9 227.16 157.34 222.24 154.45 227.92 153.93 229.15 148.36 231.39 153.6 237.07 153.05"/>
        <polygon points="235.64 109.95 229.93 109.77 228.04 115.15 226.45 109.67 220.75 109.54 225.46 106.33 223.83 100.86 228.34 104.36 233.03 101.12 231.1 106.48 235.64 109.95"/>
        <polygon points="232.56 169.99 227.7 172.97 229.07 178.51 224.73 174.8 219.89 177.82 222.07 172.55 217.71 168.88 223.4 169.32 225.54 164.03 226.87 169.58 232.56 169.99"/>
        <polygon points="230.01 93.35 224.36 94.13 223.4 99.75 220.91 94.62 215.26 95.44 219.37 91.49 216.85 86.37 221.88 89.06 225.96 85.08 224.96 90.69 230.01 93.35"/>
        <polygon points="225.27 185.93 219.98 188.05 220.4 193.74 216.75 189.36 211.47 191.52 214.5 186.69 210.82 182.34 216.35 183.73 219.35 178.88 219.73 184.57 225.27 185.93"/>
        <polygon points="221.68 77.92 216.24 79.65 216.23 85.35 212.92 80.71 207.49 82.47 210.88 77.88 207.53 73.26 212.94 75.07 216.29 70.45 216.25 76.16 221.68 77.92"/>
        <polygon points="215.41 200.42 209.83 201.62 209.29 207.3 206.42 202.37 200.86 203.61 204.66 199.36 201.76 194.45 206.98 196.75 210.75 192.47 210.17 198.15 215.41 200.42"/>
        <polygon points="210.87 64.12 205.8 66.74 206.75 72.36 202.7 68.34 197.65 70.99 200.22 65.9 196.14 61.91 201.78 62.78 204.31 57.66 205.22 63.3 210.87 64.12"/>
        <polygon points="203.25 213.04 197.55 213.29 196.06 218.8 194.06 213.45 188.37 213.74 192.83 210.19 190.8 204.86 195.55 208.01 199.99 204.43 198.47 209.93 203.25 213.04"/>
        <polygon points="197.89 52.34 193.33 55.76 195.22 61.15 190.55 57.87 186.02 61.33 187.69 55.87 183 52.63 188.7 52.54 190.34 47.07 192.19 52.47 197.89 52.34"/>
        <polygon points="189.14 223.44 183.48 222.73 181.09 227.91 180.02 222.31 174.35 221.63 179.35 218.88 178.24 213.29 182.4 217.19 187.38 214.41 184.95 219.57 189.14 223.44"/>
        <polygon points="183.12 42.9 179.2 47.04 181.97 52.03 176.82 49.58 172.93 53.75 173.66 48.1 168.49 45.69 174.1 44.64 174.79 38.98 177.52 43.98 183.12 42.9"/>
        <polygon points="170 226.8 173.48 231.33 168.02 229.67 164.79 234.38 164.68 228.67 159.21 227.06 164.6 225.19 164.44 219.48 167.89 224.03 173.26 222.12 170 226.8"/>
        <polygon points="163.81 40.82 167.37 45.27 161.88 43.72 158.75 48.49 158.52 42.79 153.02 41.28 158.37 39.31 158.11 33.61 161.64 38.09 166.98 36.07 163.81 40.82"/>
        <polygon points="158.06 227.36 154.05 231.42 156.72 236.47 151.62 233.92 147.65 238.01 148.49 232.37 143.37 229.86 149 228.92 149.8 223.27 152.44 228.34 158.06 227.36"/>
        <polygon points="155.38 30.66 138.37 42.93 144.92 62.85 128 50.46 111.08 62.85 117.63 42.93 100.62 30.66 121.59 30.74 128 10.77 134.41 30.74 155.38 30.66"/>
        <polygon points="142.95 227.66 133.66 234.35 137.24 245.23 128 238.47 118.76 245.23 122.34 234.35 113.05 227.66 124.5 227.7 128 216.8 131.5 227.7 142.95 227.66"/>
        <polygon points="112.63 229.86 107.51 232.37 108.35 238.01 104.38 233.92 99.28 236.47 101.95 231.42 97.94 227.36 103.56 228.34 106.2 223.27 107 228.92 112.63 229.86"/>
        <polygon points="102.98 41.28 97.48 42.79 97.25 48.49 94.12 43.72 88.63 45.27 92.19 40.82 89.02 36.07 94.36 38.09 97.89 33.61 97.63 39.31 102.98 41.28"/>
        <polygon points="96.79 227.06 91.32 228.67 91.21 234.38 87.98 229.67 82.52 231.33 86 226.8 82.74 222.12 88.11 224.03 91.56 219.48 91.4 225.19 96.79 227.06"/>
        <polygon points="87.51 45.69 82.34 48.1 83.07 53.75 79.18 49.58 74.03 52.03 76.8 47.04 72.88 42.9 78.48 43.98 81.21 38.98 81.9 44.64 87.51 45.69"/>
        <polygon points="81.65 221.63 75.98 222.31 74.91 227.91 72.52 222.73 66.86 223.44 71.05 219.57 68.62 214.41 73.6 217.19 77.76 213.29 76.65 218.88 81.65 221.63"/>
        <polygon points="73 52.63 68.31 55.87 69.98 61.33 65.45 57.87 60.78 61.15 62.67 55.76 58.11 52.34 63.81 52.47 65.66 47.07 67.3 52.54 73 52.63"/>
        <polygon points="67.63 213.74 61.94 213.45 59.94 218.8 58.45 213.29 52.75 213.04 57.53 209.93 56.01 204.43 60.45 208.01 65.2 204.86 63.17 210.19 67.63 213.74"/>
        <polygon points="59.86 61.91 55.78 65.9 58.35 70.99 53.3 68.34 49.25 72.36 50.2 66.74 45.13 64.12 50.78 63.3 51.69 57.66 54.22 62.78 59.86 61.91"/>
        <polygon points="51.34 199.36 55.14 203.61 49.58 202.37 46.71 207.3 46.17 201.62 40.59 200.42 45.83 198.15 45.25 192.47 49.02 196.75 54.24 194.45 51.34 199.36"/>
        <polygon points="45.12 77.88 48.51 82.47 43.08 80.71 39.77 85.35 39.76 79.65 34.32 77.92 39.75 76.16 39.71 70.45 43.06 75.07 48.47 73.26 45.12 77.88"/>
        <polygon points="45.18 182.34 41.5 186.69 44.53 191.52 39.25 189.36 35.6 193.74 36.02 188.05 30.73 185.93 36.27 184.57 36.65 178.88 39.65 183.73 45.18 182.34"/>
        <polygon points="40.74 95.44 35.09 94.62 32.6 99.75 31.64 94.13 25.99 93.35 31.04 90.69 30.04 85.08 34.12 89.06 39.15 86.37 36.63 91.49 40.74 95.44"/>
        <polygon points="38.29 168.88 33.93 172.55 36.11 177.82 31.27 174.8 26.93 178.51 28.3 172.97 23.44 169.99 29.13 169.58 30.46 164.03 32.6 169.32 38.29 168.88"/>
        <polygon points="35.25 109.54 29.55 109.67 27.96 115.15 26.07 109.77 20.36 109.95 24.9 106.48 22.97 101.12 27.66 104.36 32.17 100.86 30.54 106.33 35.25 109.54"/>
        <polygon points="33.76 154.45 28.84 157.34 30.1 162.9 25.84 159.11 20.94 162.03 23.22 156.8 18.93 153.05 24.61 153.6 26.85 148.36 28.08 153.93 33.76 154.45"/>
        <polygon points="32.22 124.35 26.62 125.44 25.97 131.11 23.2 126.12 17.61 127.26 21.5 123.08 18.69 118.12 23.86 120.52 27.72 116.32 27.03 121.98 32.22 124.35"/>
        <polygon points="31.71 139.46 26.38 141.48 26.69 147.18 23.12 142.73 17.8 144.79 20.93 140.02 17.33 135.59 22.83 137.09 25.93 132.3 26.2 138 31.71 139.46"/>
      </g>
      <g>
        <polygon points="128 216.8 131.5 227.7 142.95 227.66 133.66 234.35 137.24 245.23 128 238.47 118.76 245.23 122.34 234.35 113.05 227.66 124.5 227.7 128 216.8" fill="none" stroke="#fff" stroke-miterlimit="10"/>
        <polygon points="121.59 30.74 100.62 30.66 117.63 42.93 111.08 62.85 128 50.46 144.92 62.85 138.37 42.93 155.38 30.66 134.41 30.74 128 10.77 121.59 30.74" fill="none" stroke="#fff" stroke-miterlimit="10"/>
        <polygon points="149 228.92 143.37 229.86 148.49 232.37 147.65 238.01 151.62 233.92 156.72 236.47 154.05 231.42 158.06 227.36 152.44 228.34 149.8 223.27 149 228.92" fill="none" stroke="#fff" stroke-miterlimit="10"/>
        <polygon points="164.6 225.19 159.21 227.06 164.68 228.67 164.79 234.38 168.02 229.67 173.48 231.33 170 226.8 173.26 222.12 167.89 224.03 164.44 219.48 164.6 225.19" fill="none" stroke="#fff" stroke-miterlimit="10"/>
        <polygon points="179.35 218.88 174.35 221.63 180.02 222.31 181.09 227.91 183.48 222.73 189.14 223.44 184.95 219.57 187.38 214.41 182.4 217.19 178.24 213.29 179.35 218.88" fill="none" stroke="#fff" stroke-miterlimit="10"/>
        <polygon points="192.83 210.19 188.37 213.74 194.06 213.45 196.06 218.8 197.55 213.29 203.25 213.04 198.47 209.93 199.99 204.43 195.55 208.01 190.8 204.86 192.83 210.19" fill="none" stroke="#fff" stroke-miterlimit="10"/>
        <polygon points="204.66 199.36 200.86 203.61 206.42 202.37 209.29 207.3 209.83 201.62 215.41 200.42 210.17 198.15 210.75 192.47 206.98 196.75 201.76 194.45 204.66 199.36" fill="none" stroke="#fff" stroke-miterlimit="10"/>
        <polygon points="214.5 186.69 211.47 191.52 216.75 189.36 220.4 193.74 219.98 188.05 225.27 185.93 219.73 184.57 219.35 178.88 216.35 183.73 210.82 182.34 214.5 186.69" fill="none" stroke="#fff" stroke-miterlimit="10"/>
        <polygon points="222.07 172.55 219.89 177.82 224.73 174.8 229.07 178.51 227.7 172.97 232.56 169.99 226.87 169.58 225.54 164.03 223.4 169.32 217.71 168.88 222.07 172.55" fill="none" stroke="#fff" stroke-miterlimit="10"/>
        <polygon points="227.16 157.34 225.9 162.9 230.16 159.11 235.06 162.03 232.78 156.8 237.07 153.05 231.39 153.6 229.15 148.36 227.92 153.93 222.24 154.45 227.16 157.34" fill="none" stroke="#fff" stroke-miterlimit="10"/>
        <polygon points="229.62 141.48 229.31 147.18 232.88 142.73 238.2 144.79 235.07 140.02 238.67 135.59 233.17 137.09 230.07 132.3 229.8 138 224.29 139.46 229.62 141.48" fill="none" stroke="#fff" stroke-miterlimit="10"/>
        <polygon points="229.38 125.44 230.03 131.11 232.8 126.12 238.39 127.26 234.5 123.08 237.31 118.12 232.14 120.52 228.28 116.32 228.97 121.98 223.78 124.35 229.38 125.44" fill="none" stroke="#fff" stroke-miterlimit="10"/>
        <polygon points="226.45 109.67 228.04 115.15 229.93 109.77 235.64 109.95 231.1 106.48 233.03 101.12 228.34 104.36 223.83 100.86 225.46 106.33 220.75 109.54 226.45 109.67" fill="none" stroke="#fff" stroke-miterlimit="10"/>
        <polygon points="220.91 94.62 223.4 99.75 224.36 94.13 230.01 93.35 224.96 90.69 225.96 85.08 221.88 89.06 216.85 86.37 219.37 91.49 215.26 95.44 220.91 94.62" fill="none" stroke="#fff" stroke-miterlimit="10"/>
        <polygon points="212.92 80.71 216.23 85.35 216.24 79.65 221.68 77.92 216.25 76.16 216.29 70.45 212.94 75.07 207.53 73.26 210.88 77.88 207.49 82.47 212.92 80.71" fill="none" stroke="#fff" stroke-miterlimit="10"/>
        <polygon points="202.7 68.34 206.75 72.36 205.8 66.74 210.87 64.12 205.22 63.3 204.31 57.66 201.78 62.78 196.14 61.91 200.22 65.9 197.65 70.99 202.7 68.34" fill="none" stroke="#fff" stroke-miterlimit="10"/>
        <polygon points="190.55 57.87 195.22 61.15 193.33 55.76 197.89 52.34 192.19 52.47 190.34 47.07 188.7 52.54 183 52.63 187.69 55.87 186.02 61.33 190.55 57.87" fill="none" stroke="#fff" stroke-miterlimit="10"/>
        <polygon points="176.82 49.58 181.97 52.03 179.2 47.04 183.12 42.9 177.52 43.98 174.79 38.98 174.1 44.64 168.49 45.69 173.66 48.1 172.93 53.75 176.82 49.58" fill="none" stroke="#fff" stroke-miterlimit="10"/>
        <polygon points="161.88 43.72 167.37 45.27 163.81 40.82 166.98 36.07 161.64 38.09 158.11 33.61 158.37 39.31 153.02 41.28 158.52 42.79 158.75 48.49 161.88 43.72" fill="none" stroke="#fff" stroke-miterlimit="10"/>
        <polygon points="106.2 223.27 103.56 228.34 97.94 227.36 101.95 231.42 99.28 236.47 104.38 233.92 108.35 238.01 107.51 232.37 112.63 229.86 107 228.92 106.2 223.27" fill="none" stroke="#fff" stroke-miterlimit="10"/>
        <polygon points="91.56 219.48 88.11 224.03 82.74 222.12 86 226.8 82.52 231.33 87.98 229.67 91.21 234.38 91.32 228.67 96.79 227.06 91.4 225.19 91.56 219.48" fill="none" stroke="#fff" stroke-miterlimit="10"/>
        <polygon points="77.76 213.29 73.6 217.19 68.62 214.41 71.05 219.57 66.86 223.44 72.52 222.73 74.91 227.91 75.98 222.31 81.65 221.63 76.65 218.88 77.76 213.29" fill="none" stroke="#fff" stroke-miterlimit="10"/>
        <polygon points="65.2 204.86 60.45 208.01 56.01 204.43 57.53 209.93 52.75 213.04 58.45 213.29 59.94 218.8 61.94 213.45 67.63 213.74 63.17 210.19 65.2 204.86" fill="none" stroke="#fff" stroke-miterlimit="10"/>
        <polygon points="54.24 194.45 49.02 196.75 45.25 192.47 45.83 198.15 40.59 200.42 46.17 201.62 46.71 207.3 49.58 202.37 55.14 203.61 51.34 199.36 54.24 194.45" fill="none" stroke="#fff" stroke-miterlimit="10"/>
        <polygon points="45.18 182.34 39.65 183.73 36.65 178.88 36.27 184.57 30.73 185.93 36.02 188.05 35.6 193.74 39.25 189.36 44.53 191.52 41.5 186.69 45.18 182.34" fill="none" stroke="#fff" stroke-miterlimit="10"/>
        <polygon points="38.29 168.88 32.6 169.32 30.46 164.03 29.13 169.58 23.44 169.99 28.3 172.97 26.93 178.51 31.27 174.8 36.11 177.82 33.93 172.55 38.29 168.88" fill="none" stroke="#fff" stroke-miterlimit="10"/>
        <polygon points="33.76 154.45 28.08 153.93 26.85 148.36 24.61 153.6 18.93 153.05 23.22 156.8 20.94 162.03 25.84 159.11 30.1 162.9 28.84 157.34 33.76 154.45" fill="none" stroke="#fff" stroke-miterlimit="10"/>
        <polygon points="31.71 139.46 26.2 138 25.93 132.3 22.83 137.09 17.33 135.59 20.93 140.02 17.8 144.79 23.12 142.73 26.69 147.18 26.38 141.48 31.71 139.46" fill="none" stroke="#fff" stroke-miterlimit="10"/>
        <polygon points="32.22 124.35 27.03 121.98 27.72 116.32 23.86 120.52 18.69 118.12 21.5 123.08 17.61 127.26 23.2 126.12 25.97 131.11 26.62 125.44 32.22 124.35" fill="none" stroke="#fff" stroke-miterlimit="10"/>
        <polygon points="35.25 109.54 30.54 106.33 32.17 100.86 27.66 104.36 22.97 101.12 24.9 106.48 20.36 109.95 26.07 109.77 27.96 115.15 29.55 109.67 35.25 109.54" fill="none" stroke="#fff" stroke-miterlimit="10"/>
        <polygon points="40.74 95.44 36.63 91.49 39.15 86.37 34.12 89.06 30.04 85.08 31.04 90.69 25.99 93.35 31.64 94.13 32.6 99.75 35.09 94.62 40.74 95.44" fill="none" stroke="#fff" stroke-miterlimit="10"/>
        <polygon points="48.51 82.47 45.12 77.88 48.47 73.26 43.06 75.07 39.71 70.45 39.75 76.16 34.32 77.92 39.76 79.65 39.77 85.35 43.08 80.71 48.51 82.47" fill="none" stroke="#fff" stroke-miterlimit="10"/>
        <polygon points="58.35 70.99 55.78 65.9 59.86 61.91 54.22 62.78 51.69 57.66 50.78 63.3 45.13 64.12 50.2 66.74 49.25 72.36 53.3 68.34 58.35 70.99" fill="none" stroke="#fff" stroke-miterlimit="10"/>
        <polygon points="69.98 61.33 68.31 55.87 73 52.63 67.3 52.54 65.66 47.07 63.81 52.47 58.11 52.34 62.67 55.76 60.78 61.15 65.45 57.87 69.98 61.33" fill="none" stroke="#fff" stroke-miterlimit="10"/>
        <polygon points="83.07 53.75 82.34 48.1 87.51 45.69 81.9 44.64 81.21 38.98 78.48 43.98 72.88 42.9 76.8 47.04 74.03 52.03 79.18 49.58 83.07 53.75" fill="none" stroke="#fff" stroke-miterlimit="10"/>
        <polygon points="97.25 48.49 97.48 42.79 102.98 41.28 97.63 39.31 97.89 33.61 94.36 38.09 89.02 36.07 92.19 40.82 88.63 45.27 94.12 43.72 97.25 48.49" fill="none" stroke="#fff" stroke-miterlimit="10"/>
      </g>
    </g>
    <line x1="100.783" y1="30.641" x2="102.935" y2="41.255" fill="#090045" opacity=".01" stroke="#231f20" stroke-linecap="round" stroke-miterlimit="10" stroke-width=".25"/>
    <line x1="155.435" y1="30.609" x2="153.217" y2="40.913" fill="#090045" opacity=".04" stroke="#231f20" stroke-linecap="round" stroke-miterlimit="10" stroke-width=".25"/>
    <line x1="112.522" y1="229.815" x2="113.207" y2="227.712" fill="#090045" opacity="0" stroke="#231f20" stroke-linecap="round" stroke-miterlimit="10" stroke-width=".25"/>
    <line x1="142.799" y1="227.663" x2="143.63" y2="229.766" fill="#090045" opacity="0" stroke="#231f20" stroke-linecap="round" stroke-miterlimit="10" stroke-width=".25"/>
    <text transform="translate(45 108.27) scale(1.314 1)" fill="#fff" font-family="Blackpast-Regular, Blackpast" font-size="33.258"><tspan x="0" y="0">rookie</tspan></text>
  </g>
</svg>